<svg width="461" height="509" viewBox="0 0 461 509" fill="none" xmlns="http://www.w3.org/2000/svg">
<path fill-rule="evenodd" clip-rule="evenodd" d="M426 52C426 76.8528 405.181 97 379.5 97C353.819 97 333 76.8528 333 52C333 27.1472 353.819 7 379.5 7C405.181 7 426 27.1472 426 52ZM424 471C424 491.987 401.838 509 374.5 509C347.162 509 325 491.987 325 471C325 450.013 347.162 433 374.5 433C401.838 433 424 450.013 424 471ZM373.936 142.665C346.554 142.187 323.988 162.925 323.533 188.984C323.078 215.043 344.907 236.556 372.289 237.033C399.671 237.511 422.237 216.774 422.692 190.715C423.147 164.656 401.318 143.143 373.936 142.665ZM326.132 333.393C326.548 309.604 349.937 290.722 378.374 291.218C406.81 291.715 429.526 311.402 429.111 335.19C428.696 358.979 405.307 377.861 376.87 377.365C348.433 376.869 325.717 357.182 326.132 333.393ZM193.831 388.676C149.976 397.378 111.411 361.373 94.6824 334.07C84.7189 317.809 65.7923 311.439 47.457 305.269C24.796 297.642 3.0384 290.32 0.221798 265.003C-2.53876 240.189 20.8871 231.824 47.2181 222.42C69.4898 214.466 93.84 205.77 106.18 185.751C133.109 142.064 195.463 93.9885 233.001 139.16C251.048 160.878 239.292 183.298 227.07 206.603C213.872 231.771 200.133 257.971 222.8 285.437C255.898 325.541 249.729 377.584 193.831 388.676Z" fill="#F5F8FB"/>
<path fill-rule="evenodd" clip-rule="evenodd" d="M213 56C212.448 56 212 56.4477 212 57V58C212 58.5523 212.448 59 213 59H214C214.552 59 215 58.5523 215 58V57C215 56.4477 214.552 56 214 56H213ZM256 125C256 124.448 256.448 124 257 124H258C258.552 124 259 124.448 259 125V126C259 126.552 258.552 127 258 127H257C256.448 127 256 126.552 256 126V125ZM168 152C168 151.448 168.448 151 169 151H171C171.552 151 172 151.448 172 152V154C172 154.552 171.552 155 171 155H169C168.448 155 168 154.552 168 154V152ZM55 197C55 196.448 55.4477 196 56 196H58C58.5523 196 59 196.448 59 197V199C59 199.552 58.5523 200 58 200H56C55.4477 200 55 199.552 55 199V197ZM47 278C47 276.895 47.8954 276 49 276H53C54.1046 276 55 276.895 55 278V282C55 283.105 54.1046 284 53 284H49C47.8954 284 47 283.105 47 282V278ZM175 207C174.448 207 174 207.448 174 208V210C174 210.552 174.448 211 175 211H177C177.552 211 178 210.552 178 210V208C178 207.448 177.552 207 177 207H175ZM241 239C240.448 239 240 239.448 240 240V242C240 242.552 240.448 243 241 243H243C243.552 243 244 242.552 244 242V240C244 239.448 243.552 239 243 239H241ZM107 214C107 213.448 107.448 213 108 213H110C110.552 213 111 213.448 111 214V216C111 216.552 110.552 217 110 217H108C107.448 217 107 216.552 107 216V214ZM187 189C186.448 189 186 189.448 186 190V191C186 191.552 186.448 192 187 192H188C188.552 192 189 191.552 189 191V190C189 189.448 188.552 189 188 189H187ZM230 270C230 269.448 230.448 269 231 269H232C232.552 269 233 269.448 233 270V271C233 271.552 232.552 272 232 272H231C230.448 272 230 271.552 230 271V270ZM244 358C243.448 358 243 358.448 243 359V360C243 360.552 243.448 361 244 361H245C245.552 361 246 360.552 246 360V359C246 358.448 245.552 358 245 358H244ZM169 315C169 314.448 169.448 314 170 314H171C171.552 314 172 314.448 172 315V316C172 316.552 171.552 317 171 317H170C169.448 317 169 316.552 169 316V315ZM116 177C115.448 177 115 177.448 115 178V179C115 179.552 115.448 180 116 180H117C117.552 180 118 179.552 118 179V178C118 177.448 117.552 177 117 177H116ZM55 298C55 297.448 55.4477 297 56 297H57C57.5523 297 58 297.448 58 298V299C58 299.552 57.5523 300 57 300H56C55.4477 300 55 299.552 55 299V298ZM170 231C169.448 231 169 231.448 169 232V233C169 233.552 169.448 234 170 234H171C171.552 234 172 233.552 172 233V232C172 231.448 171.552 231 171 231H170Z" fill="#5C9FFF"/>
<path d="M92 265.5C166.949 265.5 159.247 62 326 62" stroke="#164798" stroke-linecap="round" stroke-linejoin="round"/>
<path d="M92 265.5C212.5 265.5 140.679 473 326 473" stroke="#164798" stroke-linecap="round" stroke-linejoin="round"/>
<path d="M92 265.5C200.157 265.5 174.28 193 326 193" stroke="#164798" stroke-linecap="round" stroke-linejoin="round"/>
<path d="M93 265.5C222.5 265.5 207.646 332 326 332" stroke="#164798" stroke-linecap="round" stroke-linejoin="round"/>
<path d="M380.5 9V17C380.5 17.8284 379.828 18.5 379 18.5H366C365.172 18.5 364.5 17.8284 364.5 17V9C364.5 8.17157 365.172 7.5 366 7.5H379C379.828 7.5 380.5 8.17157 380.5 9Z" fill="white" stroke="#164798" stroke-linecap="round" stroke-linejoin="round"/>
<path fill-rule="evenodd" clip-rule="evenodd" d="M374 16.5H382.075C384.807 16.5 387.033 18.693 387.074 21.4248L387.677 61.5H357.5V21.5C357.5 18.7386 359.739 16.5 362.5 16.5H366.397" fill="white"/>
<mask id="mask0_1_10941" style="mask-type:alpha" maskUnits="userSpaceOnUse" x="357" y="16" width="31" height="46">
<path fill-rule="evenodd" clip-rule="evenodd" d="M374 16.5H382.075C384.807 16.5 387.033 18.693 387.074 21.4248L387.677 61.5H357.5V21.5C357.5 18.7386 359.739 16.5 362.5 16.5H366.397" fill="white"/>
</mask>
<g mask="url(#mask0_1_10941)">
<path fill-rule="evenodd" clip-rule="evenodd" d="M387.2 63.0001C387.2 63.0001 391.969 54.9554 387.677 49.728C383.385 44.5007 372.415 59.6607 367.169 55.9468C361.923 52.233 361.103 37.3468 362.4 29.8591C363.697 22.3713 361.338 17.3801 358 20.5001C354.662 23.6201 353.338 62.6237 353.338 62.6237L387.2 63.0001Z" fill="#EAEEF2"/>
</g>
<path d="M374 16.5L382.5 16.5C385.261 16.5 387.5 18.7386 387.5 21.5L387.5 61.5H357.5V21.5C357.5 18.7386 359.738 16.5 362.5 16.5C363.741 16.5 365.09 16.5 366.397 16.5" stroke="#164798" stroke-linecap="round" stroke-linejoin="round"/>
<mask id="path-12-outside-1_1_10941" maskUnits="userSpaceOnUse" x="366" y="33" width="13" height="13" fill="black">
<rect fill="white" x="366" y="33" width="13" height="13"/>
<path fill-rule="evenodd" clip-rule="evenodd" d="M374 34H371V38H367V41H371V45H374V41H378V38H374V34Z"/>
</mask>
<path fill-rule="evenodd" clip-rule="evenodd" d="M374 34H371V38H367V41H371V45H374V41H378V38H374V34Z" fill="#5C9FFF"/>
<path d="M371 34V33C370.448 33 370 33.4477 370 34H371ZM374 34H375C375 33.4477 374.552 33 374 33V34ZM371 38V39C371.552 39 372 38.5523 372 38H371ZM367 38V37C366.448 37 366 37.4477 366 38H367ZM367 41H366C366 41.5523 366.448 42 367 42V41ZM371 41H372C372 40.4477 371.552 40 371 40V41ZM371 45H370C370 45.5523 370.448 46 371 46V45ZM374 45V46C374.552 46 375 45.5523 375 45H374ZM374 41V40C373.448 40 373 40.4477 373 41H374ZM378 41V42C378.552 42 379 41.5523 379 41H378ZM378 38H379C379 37.4477 378.552 37 378 37V38ZM374 38H373C373 38.5523 373.448 39 374 39V38ZM371 35H374V33H371V35ZM372 38V34H370V38H372ZM367 39H371V37H367V39ZM368 41V38H366V41H368ZM371 40H367V42H371V40ZM372 45V41H370V45H372ZM374 44H371V46H374V44ZM373 41V45H375V41H373ZM378 40H374V42H378V40ZM377 38V41H379V38H377ZM374 39H378V37H374V39ZM373 34V38H375V34H373Z" fill="#164798" mask="url(#path-12-outside-1_1_10941)"/>
<path d="M383.5 3V7C383.5 8.38071 382.381 9.5 381 9.5H364C362.619 9.5 361.5 8.38071 361.5 7V3C361.5 1.61929 362.619 0.5 364 0.5H381C382.381 0.5 383.5 1.61929 383.5 3Z" fill="#BBC4D3" stroke="#164798" stroke-linecap="round" stroke-linejoin="round"/>
<rect x="0.5" y="-0.5" width="21" height="9" rx="4.5" transform="matrix(-1 0 0 1 405 53)" fill="white" stroke="#164798" stroke-linecap="round" stroke-linejoin="round"/>
<path d="M398.5 53C398.5 52.8674 398.553 52.7402 398.646 52.6464C398.74 52.5527 398.867 52.5 399 52.5H408C410.485 52.5 412.5 54.5147 412.5 57C412.5 59.4853 410.485 61.5 408 61.5H399C398.724 61.5 398.5 61.2761 398.5 61V53Z" fill="#5C9FFF" stroke="#164798" stroke-linecap="round" stroke-linejoin="round"/>
<path fill-rule="evenodd" clip-rule="evenodd" d="M358.978 265H400.978V332H358.978V265Z" fill="#EAEEF2"/>
<mask id="mask1_1_10941" style="mask-type:alpha" maskUnits="userSpaceOnUse" x="358" y="265" width="43" height="67">
<path fill-rule="evenodd" clip-rule="evenodd" d="M358.978 265H400.978V332H358.978V265Z" fill="white"/>
</mask>
<g mask="url(#mask1_1_10941)">
<path fill-rule="evenodd" clip-rule="evenodd" d="M383 333C383 333 399.954 315.668 396.28 308.084C392.607 300.5 390.079 295.881 387.551 288.281C385.022 280.68 372.803 284.741 372.803 270.163C372.803 255.584 401.5 263.5 401.5 263.5V332.5L383 333Z" fill="#DAE0E8"/>
</g>
<path d="M359 264.5H358.5V265V332V332.5H359H401H401.5V332V265V264.5H401H359Z" stroke="#164798"/>
<path fill-rule="evenodd" clip-rule="evenodd" d="M401.5 270.417V263.5H353.5V268C353.5 269.117 354.104 270.5 355.5 270.5H396.5" fill="#DAE0E8"/>
<path d="M401.5 270.417V263.5H353.5V268C353.5 269.117 354.104 270.5 355.5 270.5H396.5" stroke="#164798" stroke-linecap="round"/>
<path d="M369 310.5C368.724 310.5 368.5 310.724 368.5 311V332C368.5 332.276 368.724 332.5 369 332.5H390C390.276 332.5 390.5 332.276 390.5 332V311C390.5 310.724 390.276 310.5 390 310.5H369Z" fill="#BBC4D3" stroke="#164798" stroke-linecap="round" stroke-linejoin="round"/>
<path d="M369 310.5C368.724 310.5 368.5 310.724 368.5 311V332C368.5 332.276 368.724 332.5 369 332.5H379C379.276 332.5 379.5 332.276 379.5 332V311C379.5 310.724 379.276 310.5 379 310.5H369Z" fill="#FFDBB1" stroke="#164798" stroke-linecap="round" stroke-linejoin="round"/>
<path fill-rule="evenodd" clip-rule="evenodd" d="M385.5 296V283.5C385.5 282.395 386.395 281.5 387.5 281.5H389.5C390.605 281.5 391.5 282.395 391.5 283.5V297.5" fill="#FFDBB1"/>
<path d="M385.5 296V283.5C385.5 282.395 386.395 281.5 387.5 281.5H389.5C390.605 281.5 391.5 282.395 391.5 283.5V297.5" stroke="#164798" stroke-linecap="round" stroke-linejoin="round"/>
<path d="M383.5 297.5H392.5" stroke="#164798" stroke-linecap="round" stroke-linejoin="round"/>
<path fill-rule="evenodd" clip-rule="evenodd" d="M367.5 296V283.5C367.5 282.395 368.395 281.5 369.5 281.5H371.5C372.605 281.5 373.5 282.395 373.5 283.5V297.5" fill="#FFDBB1"/>
<path d="M367.5 296V283.5C367.5 282.395 368.395 281.5 369.5 281.5H371.5C372.605 281.5 373.5 282.395 373.5 283.5V297.5" stroke="#164798" stroke-linecap="round" stroke-linejoin="round"/>
<path d="M365.5 297.5H374.5" stroke="#164798" stroke-linecap="round" stroke-linejoin="round"/>
<mask id="path-31-outside-2_1_10941" maskUnits="userSpaceOnUse" x="373" y="304" width="13" height="13" fill="black">
<rect fill="white" x="373" y="304" width="13" height="13"/>
<path fill-rule="evenodd" clip-rule="evenodd" d="M381 305H378V309H374V312H378V316H381V312H385V309H381V305Z"/>
</mask>
<path fill-rule="evenodd" clip-rule="evenodd" d="M381 305H378V309H374V312H378V316H381V312H385V309H381V305Z" fill="#FF7885"/>
<path d="M378 305V304C377.448 304 377 304.448 377 305H378ZM381 305H382C382 304.448 381.552 304 381 304V305ZM378 309V310C378.552 310 379 309.552 379 309H378ZM374 309V308C373.448 308 373 308.448 373 309H374ZM374 312H373C373 312.552 373.448 313 374 313V312ZM378 312H379C379 311.448 378.552 311 378 311V312ZM378 316H377C377 316.552 377.448 317 378 317V316ZM381 316V317C381.552 317 382 316.552 382 316H381ZM381 312V311C380.448 311 380 311.448 380 312H381ZM385 312V313C385.552 313 386 312.552 386 312H385ZM385 309H386C386 308.448 385.552 308 385 308V309ZM381 309H380C380 309.552 380.448 310 381 310V309ZM378 306H381V304H378V306ZM379 309V305H377V309H379ZM374 310H378V308H374V310ZM375 312V309H373V312H375ZM378 311H374V313H378V311ZM379 316V312H377V316H379ZM381 315H378V317H381V315ZM380 312V316H382V312H380ZM385 311H381V313H385V311ZM384 309V312H386V309H384ZM381 310H385V308H381V310ZM380 305V309H382V305H380Z" fill="#164798" mask="url(#path-31-outside-2_1_10941)"/>
<path fill-rule="evenodd" clip-rule="evenodd" d="M359 135C359 131.686 361.686 129 365 129L399.014 129C402.322 129 405.006 131.678 405.014 134.986L405.146 192.207L359 192V135Z" fill="#BBC4D3"/>
<mask id="mask2_1_10941" style="mask-type:alpha" maskUnits="userSpaceOnUse" x="359" y="129" width="47" height="64">
<path fill-rule="evenodd" clip-rule="evenodd" d="M359 135C359 131.686 361.686 129 365 129L399.014 129C402.322 129 405.006 131.678 405.014 134.986L405.146 192.207L359 192V135Z" fill="white"/>
</mask>
<g mask="url(#mask2_1_10941)">
<path opacity="0.285017" fill-rule="evenodd" clip-rule="evenodd" d="M362 128C364.774 125.226 371.457 125.189 372.229 130.738C373.001 136.287 366.495 187.811 366.495 187.811L358.756 188.207V135C358.756 135 359.226 130.775 362 128Z" fill="white"/>
</g>
<path d="M405 192.5C405.276 192.5 405.5 192.276 405.5 192V135C405.5 131.41 402.59 128.5 399 128.5H365C361.41 128.5 358.5 131.41 358.5 135V192C358.5 192.276 358.724 192.5 359 192.5H405Z" stroke="#164798" stroke-linecap="round" stroke-linejoin="round"/>
<path fill-rule="evenodd" clip-rule="evenodd" d="M361.989 141.999C361.99 139.79 363.78 138 365.989 138H397.875C400.08 138 401.87 139.785 401.875 141.99L402 192H361.978L361.989 141.999Z" fill="#F1F4F9"/>
<path d="M402 192.5C402.276 192.5 402.5 192.276 402.5 192V142C402.5 139.515 400.485 137.5 398 137.5H366C363.515 137.5 361.5 139.515 361.5 142V192C361.5 192.276 361.724 192.5 362 192.5H402Z" stroke="#164798" stroke-linecap="round" stroke-linejoin="round"/>
<path d="M381 166.5C380.724 166.5 380.5 166.724 380.5 167V169.5C380.5 173.682 377.104 177.5 373 177.5H372.997H372.993H372.989H372.985H372.98H372.976H372.971H372.966H372.961H372.955H372.95H372.944H372.938H372.931H372.925H372.918H372.911H372.904H372.897H372.889H372.881H372.873H372.865H372.857H372.848H372.839H372.83H372.821H372.811H372.802H372.792H372.782H372.772H372.761H372.751H372.74H372.729H372.718H372.706H372.695H372.683H372.671H372.659H372.647H372.634H372.622H372.609H372.596H372.582H372.569H372.555H372.542H372.528H372.514H372.499H372.485H372.47H372.455H372.44H372.425H372.41H372.394H372.379H372.363H372.347H372.331H372.314H372.298H372.281H372.264H372.247H372.23H372.213H372.195H372.178H372.16H372.142H372.124H372.105H372.087H372.068H372.05H372.031H372.012H371.993H371.973H371.954H371.934H371.914H371.894H371.874H371.854H371.834H371.813H371.793H371.772H371.751H371.73H371.709H371.688H371.666H371.645H371.623H371.601H371.579H371.557H371.535H371.512H371.49H371.467H371.444H371.422H371.399H371.375H371.352H371.329H371.305H371.282H371.258H371.234H371.21H371.186H371.162H371.138H371.113H371.089H371.064H371.039H371.015H370.99H370.965H370.939H370.914H370.889H370.863H370.838H370.812H370.786H370.76H370.734H370.708H370.682H370.656H370.629H370.603H370.576H370.55H370.523H370.496H370.469H370.442H370.415H370.388H370.36H370.333H370.305H370.278H370.25H370.223H370.195H370.167H370.139H370.111H370.083H370.055H370.026H369.998H369.97H369.941H369.912H369.884H369.855H369.826H369.798H369.769H369.74H369.711H369.681H369.652H369.623H369.594H369.564H369.535H369.506H369.476H369.446H369.417H369.387H369.357H369.327H369.298H369.268H369.238H369.208H369.178H369.147H369.117H369.087H369.057H369.026H368.996H368.966H368.935H368.905H368.874H368.844H368.813H368.782H368.752H368.721H368.69H368.66H368.629H368.598H368.567H368.536H368.505H368.474H368.443H368.412H368.381H368.35H368.319H368.288H368.257H368.226H368.194H368.163H368.132H368.101H368.069H368.038H368.007H367.976H367.944H367.913H367.882H367.85H367.819H367.787H367.756H367.725H367.693H367.662H367.631H367.599H367.568H367.536H367.505H367.473H367.442H367.411H367.379H367.348H367.316H367.285H367.254H367.222H367.191H367.16H367.128H367.097H367.066H367.034H367.003H366.972H366.94H366.909H366.878H366.847H366.816H366.784H366.753H366.722H366.691H366.66H366.629H366.598H366.567H366.536H366.505H366.474H366.443H366.412H366.381H366.35H366.32H366.289H366.258H366.228H366.197H366.166H366.136H366.105H366.075H366.044H366.014H365.984H365.953H365.923H365.893H365.863H365.833H365.803H365.773H365.743H365.713H365.683H365.653H365.624H365.594H365.564H365.535H365.505H365.476H365.446H365.417H365.388H365.358H365.329H365.3H365.271H365.242H365.213H365.185H365.156H365.127H365.099H365.07H365.042H365.013H364.985H364.957H364.929H364.9H364.872H364.845H364.817H364.789H364.761H364.734H364.706H364.679H364.651H364.624H364.597H364.57H364.543H364.516H364.489H364.462H364.436H364.409H364.383H364.357H364.33H364.304H364.278H364.252H364.226H364.201H364.175H364.149H364.124H364.099H364.073H364.048H364.023H363.998H363.973H363.949H363.924H363.9H363.875H363.851H363.827H363.803H363.779H363.755H363.732H363.708H363.685H363.661H363.638H363.615H363.592H363.569H363.547H363.524H363.502H363.479H363.457H363.435H363.413H363.391H363.37H363.348H363.327H363.306H363.285H363.264H363.243H363.222H363.201H363.181H363.161H363.141H363.121H363.101H363.081H363.062H363.042H363.023H363.004H362.985H362.966H362.947H362.929H362.911H362.892H362.874H362.856H362.839H362.821H362.804H362.786H362.769H362.752H362.736H362.719H362.703H362.686H362.67H362.654H362.638H362.623H362.607H362.592H362.577H362.562H362.547H362.533H362.518H362.504H362.49H362.476H362.463H362.449H362.436H362.423H362.41H362.397H362.384H362.372H362.36H362.348H362.336H362.324H362.313H362.301H362.29H362.279H362.269H362.258H362.248H362.238H362.228H362.218H362.209H362.199H362.19H362.181H362.173H362.164H362.156H362.148H362.14H362.132H362.125H362.117H362.11H362.103H362.097H362.09H362.084H362.078H362.072H362.067H362.061H362.056H362.051H362.047H362.042H362.038H362.034H362.03H362.026H362.023H362.02H362.017H362.014H362.012H362.01H362.008H362.006H362.004H362.003H362.002H362.001H362H362C362 177.5 362 177.5 362 178V177.5C361.724 177.5 361.5 177.724 361.5 178V180C361.5 180.276 361.724 180.5 362 180.5V180C362 180.5 362 180.5 362 180.5H362H362.001H362.002H362.003H362.004H362.006H362.007H362.009H362.011H362.014H362.017H362.019H362.022H362.026H362.029H362.033H362.037H362.041H362.045H362.05H362.055H362.06H362.065H362.07H362.076H362.082H362.088H362.094H362.101H362.108H362.114H362.122H362.129H362.136H362.144H362.152H362.16H362.168H362.177H362.186H362.195H362.204H362.213H362.222H362.232H362.242H362.252H362.262H362.273H362.284H362.294H362.305H362.317H362.328H362.34H362.351H362.363H362.375H362.388H362.4H362.413H362.426H362.439H362.452H362.465H362.479H362.493H362.506H362.521H362.535H362.549H362.564H362.579H362.594H362.609H362.624H362.639H362.655H362.671H362.687H362.703H362.719H362.735H362.752H362.769H362.785H362.802H362.82H362.837H362.854H362.872H362.89H362.908H362.926H362.944H362.963H362.981H363H363.019H363.038H363.057H363.076H363.096H363.115H363.135H363.155H363.175H363.195H363.215H363.236H363.256H363.277H363.298H363.318H363.34H363.361H363.382H363.404H363.425H363.447H363.469H363.491H363.513H363.535H363.557H363.58H363.602H363.625H363.648H363.671H363.694H363.717H363.741H363.764H363.787H363.811H363.835H363.859H363.883H363.907H363.931H363.955H363.98H364.004H364.029H364.054H364.079H364.104H364.129H364.154H364.179H364.204H364.23H364.255H364.281H364.307H364.333H364.359H364.385H364.411H364.437H364.463H364.49H364.516H364.543H364.57H364.596H364.623H364.65H364.677H364.704H364.731H364.759H364.786H364.813H364.841H364.868H364.896H364.924H364.952H364.98H365.008H365.036H365.064H365.092H365.12H365.148H365.177H365.205H365.234H365.262H365.291H365.32H365.349H365.377H365.406H365.435H365.464H365.493H365.523H365.552H365.581H365.61H365.64H365.669H365.699H365.728H365.758H365.787H365.817H365.847H365.877H365.906H365.936H365.966H365.996H366.026H366.056H366.086H366.116H366.147H366.177H366.207H366.237H366.268H366.298H366.328H366.359H366.389H366.42H366.45H366.481H366.511H366.542H366.573H366.603H366.634H366.665H366.695H366.726H366.757H366.788H366.819H366.849H366.88H366.911H366.942H366.973H367.004H367.035H367.066H367.097H367.128H367.159H367.19H367.221H367.252H367.283H367.314H367.345H367.376H367.407H367.438H367.469H367.5H367.531H367.562H367.594H367.625H367.656H367.687H367.718H367.749H367.78H367.811H367.842H367.873H367.904H367.935H367.966H367.997H368.028H368.059H368.09H368.121H368.152H368.182H368.213H368.244H368.275H368.306H368.337H368.367H368.398H368.429H368.459H368.49H368.521H368.551H368.582H368.612H368.643H368.673H368.704H368.734H368.765H368.795H368.825H368.856H368.886H368.916H368.946H368.976H369.006H369.036H369.066H369.096H369.126H369.156H369.186H369.216H369.245H369.275H369.305H369.334H369.364H369.393H369.423H369.452H369.481H369.51H369.54H369.569H369.598H369.627H369.656H369.685H369.714H369.742H369.771H369.8H369.828H369.857H369.885H369.914H369.942H369.97H369.998H370.026H370.054H370.082H370.11H370.138H370.166H370.193H370.221H370.248H370.276H370.303H370.33H370.357H370.384H370.411H370.438H370.465H370.492H370.519H370.545H370.572H370.598H370.624H370.65H370.677H370.703H370.728H370.754H370.78H370.806H370.831H370.857H370.882H370.907H370.932H370.957H370.982H371.007H371.032H371.056H371.081H371.105H371.13H371.154H371.178H371.202H371.226H371.249H371.273H371.297H371.32H371.343H371.366H371.389H371.412H371.435H371.458H371.48H371.503H371.525H371.547H371.569H371.591H371.613H371.635H371.656H371.678H371.699H371.72H371.741H371.762H371.783H371.804H371.824H371.844H371.865H371.885H371.905H371.924H371.944H371.964H371.983H372.002H372.021H372.04H372.059H372.078H372.096H372.115H372.133H372.151H372.169H372.187H372.204H372.222H372.239H372.256H372.273H372.29H372.307H372.323H372.339H372.356H372.372H372.387H372.403H372.419H372.434H372.449H372.464H372.479H372.494H372.508H372.523H372.537H372.551H372.565H372.579H372.592H372.605H372.619H372.632H372.644H372.657H372.669H372.682H372.694H372.706H372.717H372.729H372.74H372.751H372.762H372.773H372.784H372.794H372.804H372.814H372.824H372.834H372.843H372.852H372.861H372.87H372.879H372.887H372.896H372.904H372.912H372.919H372.927H372.934H372.941H372.948H372.954H372.961H372.967H372.973H372.979H372.985H372.99H372.995H373C378.83 180.5 383.5 175.267 383.5 169.5V167C383.5 166.724 383.276 166.5 383 166.5H381Z" fill="#5C9FFF" stroke="#164798" stroke-linecap="round" stroke-linejoin="round"/>
<path d="M390 150C389.724 150 389.5 150.224 389.5 150.5V158C389.5 162.142 386.142 165.5 382 165.5C377.858 165.5 374.5 162.142 374.5 158V150.5C374.5 150.224 374.276 150 374 150H372C371.724 150 371.5 150.224 371.5 150.5V158C371.5 163.799 376.201 168.5 382 168.5C387.799 168.5 392.5 163.799 392.5 158V150.5C392.5 150.224 392.276 150 392 150H390Z" fill="#5C9FFF" stroke="#164798" stroke-linecap="round" stroke-linejoin="round"/>
<circle cx="360" cy="179" r="6.5" fill="#FFDBB1" stroke="#164798" stroke-linecap="round" stroke-linejoin="round"/>
<circle cx="374.5" cy="150.5" r="3" fill="#FFDBB1" stroke="#164798" stroke-linecap="round" stroke-linejoin="round"/>
<circle cx="389.5" cy="150.5" r="3" fill="#FFDBB1" stroke="#164798" stroke-linecap="round" stroke-linejoin="round"/>
<circle cx="360" cy="179" r="2.5" fill="white" stroke="#164798" stroke-linecap="round" stroke-linejoin="round"/>
<path d="M386.5 133.5H378.5" stroke="#164798" stroke-linecap="round" stroke-linejoin="round"/>
<path d="M57.9189 265.5H93" stroke="#164798" stroke-linecap="round" stroke-linejoin="round"/>
<path d="M31.6094 265.5H40.5" stroke="#164798" stroke-linecap="round" stroke-linejoin="round"/>
<path fill-rule="evenodd" clip-rule="evenodd" d="M93.4 239.4L80.2 239.4L100 262.8L93.4 239.4Z" fill="#FF8370" stroke="#164798" stroke-linecap="round" stroke-linejoin="round"/>
<path fill-rule="evenodd" clip-rule="evenodd" d="M89.2 222.6L99.4 236.4L92.2 238.8L89.2 222.6Z" fill="#5C9FFF" stroke="#164798" stroke-linecap="round" stroke-linejoin="round"/>
<path fill-rule="evenodd" clip-rule="evenodd" d="M77.2 265.2L92.2 239.4L80.2 239.4L77.2 265.2Z" fill="#FF8370" stroke="#164798" stroke-linecap="round" stroke-linejoin="round"/>
<path fill-rule="evenodd" clip-rule="evenodd" d="M83.8 220.2L76 239.4C76 239.4 81.6957 241.8 86.8 241.8C91.9043 241.8 93.4 239.4 93.4 239.4L89.8 220.2H83.8Z" fill="#5C9FFF" stroke="#164798" stroke-linecap="round" stroke-linejoin="round"/>
<ellipse rx="4.8" ry="5.4" transform="matrix(-1 0 0 1 86.8 215.4)" fill="#E0E6ED" stroke="#164798" stroke-linecap="round" stroke-linejoin="round"/>
<path fill-rule="evenodd" clip-rule="evenodd" d="M81.4 240.6L85 229.8Z" fill="#5C9FFF"/>
<path d="M81.4 240.6L85 229.8" stroke="#164798" stroke-linecap="round" stroke-linejoin="round"/>
<path fill-rule="evenodd" clip-rule="evenodd" d="M146.11 230.002L133.422 233.64L158.905 250.676L146.11 230.002Z" fill="#FF8370" stroke="#164798" stroke-linecap="round" stroke-linejoin="round"/>
<path fill-rule="evenodd" clip-rule="evenodd" d="M137.442 215.01L151.051 225.464L144.791 229.756L137.442 215.01Z" fill="#5C9FFF" stroke="#164798" stroke-linecap="round" stroke-linejoin="round"/>
<path fill-rule="evenodd" clip-rule="evenodd" d="M137.649 259.268L144.957 230.333L133.422 233.64L137.649 259.268Z" fill="#FF8370" stroke="#164798" stroke-linecap="round" stroke-linejoin="round"/>
<path fill-rule="evenodd" clip-rule="evenodd" d="M131.59 214.192L129.384 234.798C129.384 234.798 135.521 235.535 140.428 234.128C145.334 232.721 146.11 230.002 146.11 230.002L137.358 212.538L131.59 214.192Z" fill="#5C9FFF" stroke="#164798" stroke-linecap="round" stroke-linejoin="round"/>
<ellipse rx="4.8" ry="5.4" transform="matrix(-0.961262 0.275637 0.275637 0.961262 133.151 208.751)" fill="#E0E6ED" stroke="#164798" stroke-linecap="round" stroke-linejoin="round"/>
<path fill-rule="evenodd" clip-rule="evenodd" d="M134.906 234.463L135.39 223.089Z" fill="#5C9FFF"/>
<path d="M134.906 234.463L135.39 223.089" stroke="#164798" stroke-linecap="round" stroke-linejoin="round"/>
<path fill-rule="evenodd" clip-rule="evenodd" d="M51.4 239.4L38.2 239.4L52.5302 249.682L58.9778 258.942L57.4281 245.847L51.4 239.4Z" fill="#FF8370" stroke="#164798" stroke-linecap="round" stroke-linejoin="round"/>
<path fill-rule="evenodd" clip-rule="evenodd" d="M47.2 222.6L57.4 236.4L50.2 238.8L47.2 222.6Z" fill="#5C9FFF" stroke="#164798" stroke-linecap="round" stroke-linejoin="round"/>
<path fill-rule="evenodd" clip-rule="evenodd" d="M35.2 265.2L50.2 239.4L38.2 239.4L35.2 265.2Z" fill="#FF8370" stroke="#164798" stroke-linecap="round" stroke-linejoin="round"/>
<path fill-rule="evenodd" clip-rule="evenodd" d="M41.8 220.2L34 239.4C34 239.4 39.6957 241.8 44.8 241.8C49.9043 241.8 51.4 239.4 51.4 239.4L47.8 220.2H41.8Z" fill="#5C9FFF" stroke="#164798" stroke-linecap="round" stroke-linejoin="round"/>
<ellipse rx="4.8" ry="5.4" transform="matrix(-1 0 0 1 44.8 215.4)" fill="#E0E6ED" stroke="#164798" stroke-linecap="round" stroke-linejoin="round"/>
<path fill-rule="evenodd" clip-rule="evenodd" d="M39.4 240.6L43 229.8Z" fill="#5C9FFF"/>
<path d="M39.4 240.6L43 229.8" stroke="#164798" stroke-linecap="round" stroke-linejoin="round"/>
<path fill-rule="evenodd" clip-rule="evenodd" d="M254.904 52.2403L242.154 55.6568L258.408 60.1897L267.249 70.5458L262.572 54.8256L254.904 52.2403Z" fill="#FF8370" stroke="#164798" stroke-linecap="round" stroke-linejoin="round"/>
<path fill-rule="evenodd" clip-rule="evenodd" d="M246.499 37.0999C246.499 37.0999 251.212 40.2375 253.84 41.2979C256.467 42.3584 262.133 43.4105 262.133 43.4105L260.7 47.1448C260.7 47.1448 256.169 47.2392 253.915 46.6826C251.661 46.1259 248.959 44.2448 248.959 44.2448L246.499 37.0999Z" fill="#5C9FFF" stroke="#164798" stroke-linecap="round" stroke-linejoin="round"/>
<path fill-rule="evenodd" clip-rule="evenodd" d="M245.933 81.3542L253.745 52.551L242.154 55.6569L245.933 81.3542Z" fill="#FF8370" stroke="#164798" stroke-linecap="round" stroke-linejoin="round"/>
<path fill-rule="evenodd" clip-rule="evenodd" d="M240.662 36.1792L238.097 56.7438C238.097 56.7438 244.22 57.5879 249.15 56.2668C254.08 54.9457 254.904 52.2404 254.904 52.2404L246.457 34.6263L240.662 36.1792Z" fill="#5C9FFF" stroke="#164798" stroke-linecap="round" stroke-linejoin="round"/>
<ellipse rx="4.8" ry="5.4" transform="matrix(-0.965926 0.258819 0.258819 0.965926 242.317 30.7664)" fill="#E0E6ED" stroke="#164798" stroke-linecap="round" stroke-linejoin="round"/>
<path fill-rule="evenodd" clip-rule="evenodd" d="M243.623 56.5053L244.305 45.1416Z" fill="#5C9FFF"/>
<path d="M243.623 56.5053L244.305 45.1416" stroke="#164798" stroke-linecap="round" stroke-linejoin="round"/>
<path fill-rule="evenodd" clip-rule="evenodd" d="M274.113 308.839L268.831 308.146L272.923 325.622L274.113 308.839Z" fill="#5C9FFF" stroke="#164798" stroke-linecap="round" stroke-linejoin="round"/>
<path fill-rule="evenodd" clip-rule="evenodd" d="M259.416 298.149L263.364 300.816L272.566 285.668C272.566 285.668 266.244 289.521 263.614 291.684C260.983 293.846 259.416 298.149 259.416 298.149Z" fill="#5C9FFF" stroke="#164798" stroke-linecap="round" stroke-linejoin="round"/>
<path fill-rule="evenodd" clip-rule="evenodd" d="M251.551 318.458L265.573 306.961L261.556 302.795L251.551 318.458Z" fill="#5C9FFF" stroke="#164798" stroke-linecap="round" stroke-linejoin="round"/>
<path fill-rule="evenodd" clip-rule="evenodd" d="M258.12 305.478C258.12 305.478 260.045 309.253 265.588 311.27C271.131 313.287 275.23 311.09 275.23 311.09L275.075 280.855L258.12 305.478Z" fill="#FF8370" stroke="#164798" stroke-linecap="round" stroke-linejoin="round"/>
<path fill-rule="evenodd" clip-rule="evenodd" d="M283.51 295.391L281.282 302.79C281.282 302.79 273.329 298.03 272.573 293.633C271.818 289.236 275.075 280.855 275.075 280.855C275.075 280.855 275.47 290.738 276.718 292.389C277.966 294.04 283.51 295.391 283.51 295.391Z" fill="#5C9FFF" stroke="#164798" stroke-linecap="round" stroke-linejoin="round"/>
<ellipse rx="3.89111" ry="4.58444" transform="matrix(-0.939693 -0.34202 -0.34202 0.939693 276.257 278.056)" fill="#E0E6ED" stroke="#164798" stroke-linecap="round" stroke-linejoin="round"/>
<path fill-rule="evenodd" clip-rule="evenodd" d="M229.982 190.76L225.491 193.624L239.858 204.381L229.982 190.76Z" fill="#5C9FFF" stroke="#164798" stroke-linecap="round" stroke-linejoin="round"/>
<path fill-rule="evenodd" clip-rule="evenodd" d="M211.852 192.018L216.591 191.523L213.904 174.004C213.904 174.004 211.537 181.02 210.912 184.367C210.287 187.714 211.852 192.018 211.852 192.018Z" fill="#5C9FFF" stroke="#164798" stroke-linecap="round" stroke-linejoin="round"/>
<path fill-rule="evenodd" clip-rule="evenodd" d="M218.882 212.631L222.233 194.81L216.478 194.201L218.882 212.631Z" fill="#5C9FFF" stroke="#164798" stroke-linecap="round" stroke-linejoin="round"/>
<path fill-rule="evenodd" clip-rule="evenodd" d="M215.57 198.465C215.57 198.465 219.472 200.119 225.014 198.102C230.557 196.085 232.285 191.767 232.285 191.767L212.731 168.704L215.57 198.465Z" fill="#FF8370" stroke="#164798" stroke-linecap="round" stroke-linejoin="round"/>
<path fill-rule="evenodd" clip-rule="evenodd" d="M228.448 178.099L224.322 187.034C224.322 187.034 219.954 182.971 217.786 179.213C215.617 175.454 212.731 168.704 212.731 168.704C212.731 168.704 217.21 173.387 220.216 175.754C223.222 178.121 228.448 178.099 228.448 178.099Z" fill="#5C9FFF" stroke="#164798" stroke-linecap="round" stroke-linejoin="round"/>
<ellipse rx="3.89111" ry="4.58444" transform="matrix(-0.939693 0.34202 0.34202 0.939693 211.838 165.801)" fill="#E0E6ED" stroke="#164798" stroke-linecap="round" stroke-linejoin="round"/>
<path d="M388 420.547C387.724 420.547 387.5 420.771 387.5 421.047V423.547C387.5 423.68 387.553 423.807 387.646 423.901C387.74 423.995 387.867 424.047 388 424.047H398C398.276 424.047 398.5 423.824 398.5 423.547V421.047C398.5 420.771 398.276 420.547 398 420.547H388Z" fill="#BBC4D3" stroke="#164798" stroke-linecap="round" stroke-linejoin="round"/>
<path d="M390 413.547C389.724 413.547 389.5 413.771 389.5 414.047V420.047C389.5 420.18 389.553 420.307 389.646 420.401C389.74 420.495 389.867 420.547 390 420.547H396C396.276 420.547 396.5 420.324 396.5 420.047V414.047C396.5 413.771 396.276 413.547 396 413.547H390Z" fill="#FF7885" stroke="#164798" stroke-linecap="square" stroke-linejoin="round"/>
<path fill-rule="evenodd" clip-rule="evenodd" d="M424.5 423.412L377.5 423.547L364.717 451.604L364.69 462.605C367.941 463.014 374.809 466.718 374.809 466.718C374.809 466.718 426.5 466.718 431 466.718C435.5 466.718 439.195 462.269 437.267 456.678C435.34 451.087 422.949 448.632 423.081 440.621C423.18 434.578 431.285 431.144 429.667 425.104C429.129 423.1 424.5 423.412 424.5 423.412Z" fill="white"/>
<path d="M424.5 423.547H377.5L364.717 451.604L364.69 462.605C368.737 463.114 377.5 466.547 377.5 466.547H431.5" stroke="#164798" stroke-linecap="round" stroke-linejoin="round"/>
<circle cx="409.962" cy="466.132" r="5.48113" fill="#BBC4D3" stroke="#164798" stroke-linecap="round" stroke-linejoin="round"/>
<path d="M380.259 430.547C380.055 430.547 379.872 430.671 379.796 430.86L372.536 448.86C372.474 449.014 372.493 449.189 372.586 449.327C372.679 449.465 372.834 449.547 373 449.547H387C387.276 449.547 387.5 449.324 387.5 449.047V431.047C387.5 430.771 387.276 430.547 387 430.547H380.259Z" fill="#FFDBB1" stroke="#164798" stroke-linecap="round" stroke-linejoin="round"/>
<path fill-rule="evenodd" clip-rule="evenodd" d="M377 466.547H358.5L358.5 455.604C358.5 453.395 360.291 451.604 362.5 451.604L369.698 451.604" fill="white"/>
<path d="M377 466.547H358.5L358.5 455.604C358.5 453.395 360.291 451.604 362.5 451.604L369.698 451.604" stroke="#164798" stroke-linecap="round" stroke-linejoin="round"/>
<circle cx="378.415" cy="466.132" r="5.48113" fill="#BBC4D3" stroke="#164798" stroke-linecap="round" stroke-linejoin="round"/>
<mask id="path-97-outside-3_1_10941" maskUnits="userSpaceOnUse" x="398" y="433.047" width="13" height="13" fill="black">
<rect fill="white" x="398" y="433.047" width="13" height="13"/>
<path fill-rule="evenodd" clip-rule="evenodd" d="M403 434.047H406V438.047H410V441.047H406V445.047H403V441.047H399V438.047H403V434.047Z"/>
</mask>
<path fill-rule="evenodd" clip-rule="evenodd" d="M403 434.047H406V438.047H410V441.047H406V445.047H403V441.047H399V438.047H403V434.047Z" fill="#FF7885"/>
<path d="M406 434.047V433.047C406.552 433.047 407 433.495 407 434.047H406ZM403 434.047H402C402 433.495 402.448 433.047 403 433.047V434.047ZM406 438.047V439.047C405.448 439.047 405 438.6 405 438.047H406ZM410 438.047V437.047C410.552 437.047 411 437.495 411 438.047H410ZM410 441.047H411C411 441.6 410.552 442.047 410 442.047V441.047ZM406 441.047H405C405 440.495 405.448 440.047 406 440.047V441.047ZM406 445.047H407C407 445.6 406.552 446.047 406 446.047V445.047ZM403 445.047V446.047C402.448 446.047 402 445.6 402 445.047H403ZM403 441.047V440.047C403.552 440.047 404 440.495 404 441.047H403ZM399 441.047V442.047C398.448 442.047 398 441.6 398 441.047H399ZM399 438.047H398C398 437.495 398.448 437.047 399 437.047V438.047ZM403 438.047H404C404 438.6 403.552 439.047 403 439.047V438.047ZM406 435.047H403V433.047H406V435.047ZM405 438.047V434.047H407V438.047H405ZM410 439.047H406V437.047H410V439.047ZM409 441.047V438.047H411V441.047H409ZM406 440.047H410V442.047H406V440.047ZM405 445.047V441.047H407V445.047H405ZM403 444.047H406V446.047H403V444.047ZM404 441.047V445.047H402V441.047H404ZM399 440.047H403V442.047H399V440.047ZM400 438.047V441.047H398V438.047H400ZM403 439.047H399V437.047H403V439.047ZM404 434.047V438.047H402V434.047H404Z" fill="#164798" mask="url(#path-97-outside-3_1_10941)"/>
<path d="M436.5 466.547H443.5" stroke="#164798" stroke-linecap="round" stroke-linejoin="round"/>
<path d="M428 423.547H433" stroke="#164798" stroke-linecap="round" stroke-linejoin="round"/>
<path fill-rule="evenodd" clip-rule="evenodd" d="M392.049 415.022C393.867 415.394 394.218 418.308 392.615 418.738C391.011 419.168 390.23 414.65 392.049 415.022Z" fill="#FFB6AA"/>
<path fill-rule="evenodd" clip-rule="evenodd" d="M362.073 78.364C363.325 78.364 364.214 78.95 364.332 79.9567H365.919C365.871 78.2096 364.326 76.9418 362.11 76.9418C359.921 76.9418 358.243 78.1936 358.243 80.0739C358.243 81.592 359.33 82.4816 361.082 82.9556L362.371 83.3072C363.538 83.6162 364.438 83.9997 364.438 84.9691C364.438 86.0345 363.421 86.7376 362.02 86.7376C360.752 86.7376 359.697 86.173 359.602 84.9851H357.95C358.057 86.9613 359.586 88.1811 362.031 88.1811C364.593 88.1811 366.068 86.8335 366.068 84.9851C366.068 83.0196 364.316 82.2579 362.931 81.9169L361.865 81.64C361.013 81.4216 359.879 81.0221 359.884 79.978C359.884 79.0512 360.731 78.364 362.073 78.364ZM367.413 83.9624C367.413 86.5032 368.894 88.1652 371.307 88.1652C373.092 88.1652 374.354 87.2863 374.716 85.9546L373.209 85.6829C372.921 86.4553 372.229 86.8495 371.323 86.8495C369.959 86.8495 369.043 85.9652 369.001 84.3885H374.817V83.8239C374.817 80.8676 373.049 79.7117 371.195 79.7117C368.915 79.7117 367.413 81.4482 367.413 83.9624ZM373.257 83.1954H369.006C369.07 82.0341 369.912 81.0274 371.206 81.0274C372.442 81.0274 373.251 81.9436 373.257 83.1954ZM378.059 88V77.091H376.466V88H378.059ZM383.996 81.0966V79.8182H382.233V79.0831C382.233 78.3587 382.531 77.9645 383.309 77.9645C383.639 77.9645 383.873 78.0391 384.022 78.087L384.395 76.798C384.171 76.7128 383.708 76.5796 383.064 76.5796C381.769 76.5796 380.635 77.336 380.635 78.8701V79.8182H379.372V81.0966H380.635V88H382.233V81.0966H383.996ZM390.071 84.0103V82.6787H385.064V84.0103H390.071ZM395.843 81.0966V79.8182H394.165V77.858H392.572V79.8182H391.374V81.0966H392.572V85.9226C392.567 87.4034 393.701 88.1225 394.958 88.1012C395.464 88.0959 395.805 88 395.992 87.9308L395.704 86.6151L395.664 86.6233C395.552 86.6467 395.371 86.6843 395.145 86.6843C394.628 86.6843 394.159 86.5139 394.165 85.5924V81.0966H395.843ZM397.545 79.8182V88H399.137V83.0036C399.137 81.9382 399.963 81.1659 401.066 81.1659C401.375 81.1659 401.614 81.2298 401.806 81.3257L402.317 79.994C402.046 79.8129 401.694 79.6957 401.247 79.6957C400.277 79.6957 399.468 80.239 399.169 81.1179H399.084V79.8182H397.545ZM402.73 83.9624C402.73 86.5032 404.211 88.1652 406.624 88.1652C408.409 88.1652 409.671 87.2863 410.033 85.9546L408.526 85.6829C408.238 86.4553 407.546 86.8495 406.64 86.8495C405.277 86.8495 404.36 85.9652 404.318 84.3885H410.135V83.8239C410.135 80.8676 408.366 79.7117 406.512 79.7117C404.233 79.7117 402.73 81.4482 402.73 83.9624ZM408.574 83.1954H404.323C404.387 82.0341 405.229 81.0274 406.523 81.0274C407.759 81.0274 408.569 81.9436 408.574 83.1954ZM411.4 85.6882C411.4 87.2969 412.609 88.1811 414.164 88.1811C415.517 88.1811 416.279 87.494 416.583 86.8814H416.647V88H418.202V82.5668C418.202 80.1858 416.322 79.7117 415.038 79.7117C413.541 79.7117 412.183 80.3083 411.65 81.7998L413.147 82.1407C413.381 81.5601 413.978 81.0008 415.049 81.0008C416.087 81.0008 416.604 81.5441 416.604 82.4816C416.609 83.0123 416.123 83.0671 414.949 83.1992L414.937 83.2007C414.824 83.2101 414.707 83.2237 414.585 83.2377L414.537 83.2433C412.987 83.4244 411.4 83.8292 411.4 85.6882ZM416.609 85.049C416.609 86.0185 415.837 86.9027 414.511 86.9027C413.61 86.9027 412.961 86.4979 412.961 85.7096C412.961 84.8573 413.717 84.5537 414.638 84.4311C414.687 84.4246 414.742 84.4175 414.801 84.4098C415.376 84.3351 416.402 84.2019 416.609 83.9944V85.049ZM424.016 81.0966V79.8182H422.338V77.858H420.746V79.8182H419.547V81.0966H420.746V85.9226C420.74 87.4034 421.875 88.1225 423.132 88.1012C423.638 88.0959 423.979 88 424.165 87.9308L423.878 86.6151L423.838 86.6233C423.725 86.6467 423.545 86.6843 423.319 86.6843C422.802 86.6843 422.333 86.5139 422.338 85.5924V81.0966H424.016ZM425.718 79.8182V88H427.311V82.9556C427.311 81.853 428.083 81.086 428.989 81.086C429.873 81.086 430.486 81.6719 430.486 82.5615V88H432.073V82.7852C432.073 81.7998 432.675 81.086 433.714 81.086C434.555 81.086 435.248 81.5547 435.248 82.6627V88H436.841V82.5135C436.841 80.6439 435.796 79.7117 434.316 79.7117C433.138 79.7117 432.254 80.2763 431.86 81.1499H431.775C431.418 80.255 430.667 79.7117 429.575 79.7117C428.494 79.7117 427.689 80.2497 427.348 81.1499H427.247V79.8182H425.718ZM438.479 83.9624C438.479 86.5032 439.959 88.1652 442.372 88.1652C444.157 88.1652 445.419 87.2863 445.782 85.9546L444.274 85.6829C443.986 86.4553 443.294 86.8495 442.388 86.8495C441.025 86.8495 440.109 85.9652 440.066 84.3885H445.883V83.8239C445.883 80.8676 444.114 79.7117 442.261 79.7117C439.981 79.7117 438.479 81.4482 438.479 83.9624ZM444.322 83.1954H440.071C440.135 82.0341 440.977 81.0274 442.271 81.0274C443.507 81.0274 444.317 81.9436 444.322 83.1954ZM449.124 88V83.1421C449.124 81.837 449.923 81.0913 451.031 81.0913C452.113 81.0913 452.768 81.7998 452.768 82.9876V88H454.36V82.7958C454.36 80.7717 453.247 79.7117 451.575 79.7117C450.344 79.7117 449.54 80.2816 449.162 81.1499H449.06V79.8182H447.532V88H449.124ZM460.185 81.0966V79.8182H458.507V77.858H456.915V79.8182H455.716V81.0966H456.915V85.9226C456.909 87.4034 458.044 88.1225 459.301 88.1012C459.807 88.0959 460.148 88 460.334 87.9308L460.047 86.6151L460.007 86.6233C459.894 86.6467 459.714 86.6843 459.488 86.6843C458.971 86.6843 458.502 86.5139 458.507 85.5924V81.0966H460.185ZM362.401 215.976L359.364 207.091H357.585L361.511 218H363.413L367.338 207.091H365.559L362.523 215.976H362.401ZM368.657 209.818V218H370.25V209.818H368.657ZM368.455 207.65C368.455 208.178 368.913 208.598 369.461 208.598C370.005 208.598 370.468 208.178 370.468 207.65C370.468 207.123 370.005 206.697 369.461 206.697C368.913 206.697 368.455 207.123 368.455 207.65ZM372.266 209.818V218H373.859V213.004C373.859 211.938 374.684 211.166 375.787 211.166C376.096 211.166 376.336 211.23 376.527 211.326L377.039 209.994C376.767 209.813 376.415 209.696 375.968 209.696C374.999 209.696 374.189 210.239 373.891 211.118H373.805V209.818H372.266ZM382.448 211.097V209.818H380.77V207.858H379.178V209.818H377.979V211.097H379.178V215.923C379.172 217.403 380.307 218.123 381.564 218.101C382.07 218.096 382.411 218 382.597 217.931L382.31 216.615L382.27 216.623C382.157 216.647 381.977 216.684 381.75 216.684C381.234 216.684 380.765 216.514 380.77 215.592V211.097H382.448ZM389.333 209.818V214.607C389.338 215.997 388.305 216.658 387.41 216.658C386.425 216.658 385.743 215.944 385.743 214.831V209.818H384.15V215.022C384.15 217.052 385.263 218.107 386.835 218.107C388.065 218.107 388.902 217.457 389.28 216.583H389.365V218H390.931V209.818H389.333ZM392.559 215.688C392.559 217.297 393.768 218.181 395.323 218.181C396.676 218.181 397.438 217.494 397.741 216.881H397.805V218H399.361V212.567C399.361 210.186 397.48 209.712 396.197 209.712C394.7 209.712 393.342 210.308 392.809 211.8L394.306 212.141C394.54 211.56 395.137 211.001 396.207 211.001C397.246 211.001 397.763 211.544 397.763 212.482C397.768 213.012 397.282 213.067 396.108 213.199H396.108L396.096 213.201C395.982 213.21 395.865 213.224 395.744 213.238L395.696 213.243C394.146 213.424 392.559 213.829 392.559 215.688ZM397.768 215.049C397.768 216.018 396.996 216.903 395.669 216.903C394.769 216.903 394.119 216.498 394.119 215.71C394.119 214.857 394.876 214.554 395.797 214.431C395.841 214.425 395.891 214.419 395.944 214.412L395.951 214.411L395.96 214.41C396.535 214.335 397.561 214.202 397.768 213.994V215.049ZM402.948 218V207.091H401.356V218H402.948ZM408.446 213.946C408.446 216.413 409.884 218.165 412.26 218.165C414.194 218.165 415.445 217.004 415.621 215.411H414.071C413.869 216.295 413.181 216.818 412.271 216.818C410.923 216.818 410.055 215.694 410.055 213.909C410.055 212.157 410.939 211.054 412.271 211.054C413.283 211.054 413.901 211.693 414.071 212.46H415.621C415.451 210.809 414.103 209.712 412.244 209.712C409.937 209.712 408.446 211.448 408.446 213.946ZM416.822 215.688C416.822 217.297 418.032 218.181 419.587 218.181C420.94 218.181 421.702 217.494 422.005 216.881H422.069V218H423.625V212.567C423.625 210.186 421.744 209.712 420.461 209.712C418.964 209.712 417.605 210.308 417.073 211.8L418.57 212.141C418.804 211.56 419.401 211.001 420.471 211.001C421.51 211.001 422.027 211.544 422.027 212.482C422.032 213.012 421.545 213.067 420.372 213.199H420.372L420.359 213.201C420.246 213.21 420.129 213.224 420.008 213.238L419.96 213.243C418.41 213.424 416.822 213.829 416.822 215.688ZM422.032 215.049C422.032 216.018 421.26 216.903 419.933 216.903C419.033 216.903 418.383 216.498 418.383 215.71C418.383 214.857 419.14 214.554 420.061 214.431C420.083 214.428 420.106 214.425 420.13 214.422L420.214 214.411L420.224 214.41C420.799 214.335 421.824 214.202 422.032 213.994V215.049ZM425.62 209.818V218H427.212V213.004C427.212 211.938 428.038 211.166 429.141 211.166C429.45 211.166 429.689 211.23 429.881 211.326L430.392 209.994C430.121 209.813 429.769 209.696 429.322 209.696C428.352 209.696 427.543 210.239 427.244 211.118H427.159V209.818H425.62ZM430.805 213.962C430.805 216.503 432.286 218.165 434.699 218.165C436.484 218.165 437.746 217.286 438.108 215.955L436.601 215.683C436.313 216.455 435.621 216.849 434.715 216.849C433.352 216.849 432.435 215.965 432.393 214.389H438.209V213.824C438.209 210.868 436.441 209.712 434.587 209.712C432.308 209.712 430.805 211.448 430.805 213.962ZM436.649 213.195H432.398C432.462 212.034 433.304 211.027 434.598 211.027C435.834 211.027 436.643 211.944 436.649 213.195ZM358.408 358V347.091H362.296C364.832 347.091 366.078 348.614 366.073 350.623C366.078 352.636 364.821 354.165 362.291 354.165H360.054V358H358.408ZM360.054 352.769H362.142C363.751 352.769 364.422 351.864 364.416 350.623C364.422 349.392 363.751 348.503 362.121 348.503H360.054V352.769ZM367.743 358V349.818H369.282V351.118H369.368C369.666 350.239 370.476 349.696 371.445 349.696C371.893 349.696 372.244 349.813 372.516 349.994L372.004 351.326C371.813 351.23 371.573 351.166 371.264 351.166C370.161 351.166 369.336 351.938 369.336 353.004V358H367.743ZM373.595 358V349.818H375.187V358H373.595ZM374.399 348.598C373.85 348.598 373.392 348.178 373.392 347.65C373.392 347.123 373.85 346.697 374.399 346.697C374.942 346.697 375.406 347.123 375.406 347.65C375.406 348.178 374.942 348.598 374.399 348.598ZM377.204 358V349.818H378.732V351.15H378.834C379.175 350.25 379.979 349.712 381.06 349.712C382.152 349.712 382.903 350.255 383.26 351.15H383.345C383.739 350.276 384.624 349.712 385.801 349.712C387.282 349.712 388.326 350.644 388.326 352.514V358H386.733V352.663C386.733 351.555 386.041 351.086 385.199 351.086C384.16 351.086 383.558 351.8 383.558 352.785V358H381.971V352.561C381.971 351.672 381.358 351.086 380.474 351.086C379.569 351.086 378.796 351.853 378.796 352.956V358H377.204ZM392.713 358.181C391.157 358.181 389.948 357.297 389.948 355.688C389.948 353.829 391.535 353.424 393.085 353.243L393.135 353.238C393.256 353.224 393.372 353.21 393.485 353.201L393.498 353.199C394.671 353.067 395.157 353.012 395.152 352.482C395.152 351.544 394.635 351.001 393.597 351.001C392.526 351.001 391.929 351.56 391.695 352.141L390.198 351.8C390.731 350.308 392.089 349.712 393.586 349.712C394.87 349.712 396.75 350.186 396.75 352.567V358H395.195V356.881H395.131C394.827 357.494 394.065 358.181 392.713 358.181ZM393.059 356.903C394.385 356.903 395.157 356.018 395.157 355.049V353.994C394.95 354.202 393.924 354.335 393.349 354.41C393.29 354.418 393.235 354.425 393.187 354.431C392.265 354.554 391.509 354.857 391.509 355.71C391.509 356.498 392.159 356.903 393.059 356.903ZM398.745 358V349.818H400.285V351.118H400.37C400.668 350.239 401.478 349.696 402.447 349.696C402.895 349.696 403.246 349.813 403.518 349.994L403.007 351.326C402.815 351.23 402.575 351.166 402.266 351.166C401.164 351.166 400.338 351.938 400.338 353.004V358H398.745ZM405.545 361.18C405.05 361.18 404.65 361.074 404.48 360.994L404.863 359.673C405.742 359.907 406.291 359.806 406.711 358.751L406.967 358.123L403.952 349.818H405.657L407.729 356.168H407.814L409.886 349.818H411.596L408.187 359.193C407.724 360.466 406.866 361.18 405.545 361.18ZM420.263 358.165C417.887 358.165 416.449 356.413 416.449 353.946C416.449 351.448 417.94 349.712 420.247 349.712C422.106 349.712 423.454 350.809 423.624 352.46H422.074C421.904 351.693 421.286 351.054 420.274 351.054C418.942 351.054 418.058 352.157 418.058 353.909C418.058 355.694 418.926 356.818 420.274 356.818C421.184 356.818 421.872 356.296 422.074 355.411H423.624C423.448 357.004 422.197 358.165 420.263 358.165ZM427.59 358.181C426.035 358.181 424.825 357.297 424.825 355.688C424.825 353.829 426.413 353.424 427.963 353.243L428.013 353.238C428.133 353.224 428.25 353.21 428.362 353.201L428.375 353.199C429.548 353.067 430.035 353.012 430.03 352.482C430.03 351.544 429.513 351.001 428.474 351.001C427.404 351.001 426.807 351.56 426.573 352.141L425.076 351.8C425.608 350.308 426.967 349.712 428.464 349.712C429.747 349.712 431.628 350.186 431.628 352.567V358H430.072V356.881H430.008C429.705 357.494 428.943 358.181 427.59 358.181ZM427.936 356.903C429.263 356.903 430.035 356.018 430.035 355.049V353.994C429.827 354.202 428.802 354.335 428.227 354.41C428.189 354.415 428.154 354.419 428.121 354.424C428.101 354.426 428.082 354.429 428.064 354.431C427.143 354.554 426.386 354.857 426.386 355.71C426.386 356.498 427.036 356.903 427.936 356.903ZM433.623 349.818H435.162V351.118H435.247C435.546 350.239 436.355 349.696 437.325 349.696C437.772 349.696 438.124 349.813 438.395 349.994L437.884 351.326C437.692 351.23 437.453 351.166 437.144 351.166C436.041 351.166 435.215 351.938 435.215 353.004V358H433.623V349.818ZM442.702 358.165C440.289 358.165 438.808 356.503 438.808 353.962C438.808 351.448 440.311 349.712 442.59 349.712C444.444 349.712 446.213 350.868 446.213 353.824V354.389H440.396C440.438 355.965 441.355 356.849 442.718 356.849C443.624 356.849 444.316 356.455 444.604 355.683L446.111 355.955C445.749 357.286 444.487 358.165 442.702 358.165ZM440.401 353.195H444.652C444.646 351.944 443.837 351.027 442.601 351.027C441.307 351.027 440.465 352.034 440.401 353.195ZM358.347 486.091V497H365.251V495.583H359.993V492.243H364.83V490.832H359.993V487.508H365.187V486.091H358.347ZM367.139 488.818V497H368.732V491.956C368.732 490.853 369.504 490.086 370.41 490.086C371.294 490.086 371.907 490.672 371.907 491.561V497H373.494V491.785C373.494 490.8 374.096 490.086 375.135 490.086C375.976 490.086 376.669 490.555 376.669 491.663V497H378.261V491.514C378.261 489.644 377.217 488.712 375.736 488.712C374.559 488.712 373.675 489.276 373.281 490.15H373.196C372.839 489.255 372.088 488.712 370.996 488.712C369.914 488.712 369.11 489.25 368.769 490.15H368.668V488.818H367.139ZM379.899 492.962C379.899 495.503 381.38 497.165 383.793 497.165C385.578 497.165 386.84 496.286 387.202 494.955L385.695 494.683C385.407 495.455 384.715 495.849 383.809 495.849C382.446 495.849 381.529 494.965 381.487 493.389H387.304V492.824C387.304 489.868 385.535 488.712 383.681 488.712C381.402 488.712 379.899 490.448 379.899 492.962ZM385.743 492.195H381.492C381.556 491.034 382.398 490.027 383.692 490.027C384.928 490.027 385.738 490.944 385.743 492.195ZM388.952 488.818V497H390.545V492.004C390.545 490.938 391.371 490.166 392.473 490.166C392.782 490.166 393.022 490.23 393.214 490.326L393.725 488.994C393.453 488.813 393.102 488.696 392.654 488.696C391.685 488.696 390.875 489.239 390.577 490.118H390.492V488.818H388.952ZM394.458 498.246C394.889 499.248 396.013 500.084 397.899 500.084C399.934 500.084 401.627 499.131 401.627 497.048V488.818H400.067V490.145H399.95C399.667 489.639 399.103 488.712 397.579 488.712C395.603 488.712 394.149 490.272 394.149 492.877C394.149 495.487 395.635 496.878 397.569 496.878C399.071 496.878 399.651 496.031 399.939 495.509H400.04V496.947C400.056 498.209 399.076 498.784 397.92 498.784C396.658 498.784 396.098 498.097 395.827 497.687L394.458 498.246ZM400.056 492.856C400.056 494.544 399.294 495.556 397.92 495.556C396.498 495.556 395.757 494.465 395.757 492.856C395.757 491.284 396.482 490.065 397.92 490.065C399.31 490.065 400.056 491.199 400.056 492.856ZM403.271 492.962C403.271 495.503 404.752 497.165 407.165 497.165C408.949 497.165 410.212 496.286 410.574 494.955L409.066 494.683C408.779 495.455 408.086 495.849 407.181 495.849C405.817 495.849 404.901 494.965 404.858 493.389H410.675V492.824C410.675 489.868 408.907 488.712 407.053 488.712C404.773 488.712 403.271 490.448 403.271 492.962ZM409.114 492.195H404.864C404.928 491.034 405.769 490.027 407.064 490.027C408.299 490.027 409.109 490.944 409.114 492.195ZM413.917 497V492.142C413.917 490.837 414.716 490.091 415.823 490.091C416.905 490.091 417.56 490.8 417.56 491.988V497H419.153V491.796C419.153 489.772 418.039 488.712 416.367 488.712C415.136 488.712 414.332 489.282 413.954 490.15H413.853V488.818H412.324V497H413.917ZM420.791 492.946C420.791 495.413 422.229 497.165 424.605 497.165C426.538 497.165 427.79 496.004 427.966 494.411H426.416C426.213 495.295 425.526 495.818 424.615 495.818C423.268 495.818 422.399 494.694 422.399 492.909C422.399 491.157 423.284 490.054 424.615 490.054C425.627 490.054 426.245 490.693 426.416 491.46H427.966C427.795 489.809 426.448 488.712 424.589 488.712C422.282 488.712 420.791 490.448 420.791 492.946ZM429.434 499.994C429.604 500.074 430.004 500.18 430.499 500.18C431.82 500.18 432.678 499.466 433.141 498.193L436.55 488.818H434.84L432.768 495.168H432.683L430.611 488.818H428.906L431.921 497.123L431.665 497.751C431.245 498.806 430.696 498.907 429.817 498.673L429.434 499.994Z" fill="#6B7F9F"/>
<path d="M204 100C212 92 228 80 228 80" stroke="#D1D8DE" stroke-linecap="round" stroke-linejoin="round"/>
<path d="M203.5 210.5L210.5 206.5" stroke="#D1D8DE" stroke-linecap="round" stroke-linejoin="round"/>
<path d="M194 240C194 240 206.235 231 220 223" stroke="#D1D8DE" stroke-linecap="round" stroke-linejoin="round"/>
<path d="M225 289C231.128 295.207 249 304 249 304" stroke="#D1D8DE" stroke-linecap="round" stroke-linejoin="round"/>
<path d="M211 307C211 307 198.5 297.303 182 291" stroke="#D1D8DE" stroke-linecap="round" stroke-linejoin="round"/>
<path d="M223.09 72L229.987 66.5" stroke="#D1D8DE" stroke-linecap="round" stroke-linejoin="round"/>
<path d="M322 58L326 62L322 66" stroke="#164798" stroke-linecap="round" stroke-linejoin="round"/>
<path d="M322 189L326 193L322 197" stroke="#164798" stroke-linecap="round" stroke-linejoin="round"/>
<path d="M322 328L326 332L322 336" stroke="#164798" stroke-linecap="round" stroke-linejoin="round"/>
<path d="M322 469L326 473L322 477" stroke="#164798" stroke-linecap="round" stroke-linejoin="round"/>
<path d="M380.609 61.5H423" stroke="#164798" stroke-linecap="round" stroke-linejoin="round"/>
<path d="M380.609 192.5H423" stroke="#164798" stroke-linecap="round" stroke-linejoin="round"/>
<path d="M380.609 332.5H423" stroke="#164798" stroke-linecap="round" stroke-linejoin="round"/>
<path d="M358.609 472.5H426.115" stroke="#164798" stroke-linecap="round" stroke-linejoin="round"/>
</svg>
