<svg width="468" height="353" viewBox="0 0 468 353" fill="none" xmlns="http://www.w3.org/2000/svg">
<path fill-rule="evenodd" clip-rule="evenodd" d="M340.33 47.701C398.418 79.9073 403.717 186.241 388.503 231.112C373.289 275.982 305.383 357.711 244.634 345.214C130.689 321.774 20.7776 190.583 82.1473 108.653C143.517 26.7236 268.52 7.88758 340.33 47.701Z" fill="#F1F4F9"/>
<rect x="150.5" y="26.5" width="143" height="263" rx="16.5" fill="white" stroke="#DAE0E8"/>
<rect x="203" y="36" width="40" height="2" rx="1" fill="#E0E6ED"/>
<rect x="161.5" y="47.5" width="123" height="221" rx="2.5" fill="white" stroke="#E0E6ED"/>
<path fill-rule="evenodd" clip-rule="evenodd" d="M233 77C233 82.5227 228.523 87 223 87C217.477 87 213 82.5227 213 77C213 71.4773 217.477 67 223 67C228.523 67 233 71.4773 233 77Z" fill="#2E85FF"/>
<rect x="222" y="73" width="2" height="8" fill="white"/>
<rect x="219" y="76" width="8" height="2" fill="white"/>
<rect x="182" y="107" width="82" height="27" rx="3" fill="#F1F4F9"/>
<rect x="182" y="144" width="82" height="27" rx="3" fill="#F1F4F9"/>
<rect x="182" y="181" width="82" height="27" rx="3" fill="#F1F4F9"/>
<rect x="182" y="218" width="82" height="27" rx="13.5" fill="#F1F4F9"/>
<path fill-rule="evenodd" clip-rule="evenodd" d="M141 75C140.448 75 140 75.4477 140 76V77C140 77.5523 140.448 78 141 78H142C142.552 78 143 77.5523 143 77V76C143 75.4477 142.552 75 142 75H141ZM351 86C350.448 86 350 86.4477 350 87V89C350 89.5523 350.448 90 351 90H353C353.552 90 354 89.5523 354 89V87C354 86.4477 353.552 86 353 86H351ZM315 104C315 103.448 315.448 103 316 103H318C318.552 103 319 103.448 319 104V106C319 106.552 318.552 107 318 107H316C315.448 107 315 106.552 315 106V104ZM136 185C136 183.895 136.895 183 138 183H140C141.105 183 142 183.895 142 185V187C142 188.105 141.105 189 140 189H138C136.895 189 136 188.105 136 187V185ZM315 238C315 237.448 315.448 237 316 237H319C319.552 237 320 237.448 320 238V241C320 241.552 319.552 242 319 242H316C315.448 242 315 241.552 315 241V238ZM314 272C313.448 272 313 272.448 313 273V275C313 275.552 313.448 276 314 276H316C316.552 276 317 275.552 317 275V273C317 272.448 316.552 272 316 272H314ZM113 213C113 212.448 113.448 212 114 212H117C117.552 212 118 212.448 118 213V216C118 216.552 117.552 217 117 217H114C113.448 217 113 216.552 113 216V213ZM123 93C122.448 93 122 93.4477 122 94V95C122 95.5523 122.448 96 123 96H124C124.552 96 125 95.5523 125 95V94C125 93.4477 124.552 93 124 93H123ZM336 216C336 215.448 336.448 215 337 215H338C338.552 215 339 215.448 339 216V217C339 217.552 338.552 218 338 218H337C336.448 218 336 217.552 336 217V216ZM305 185C304.448 185 304 185.448 304 186V187C304 187.552 304.448 188 305 188H306C306.552 188 307 187.552 307 187V186C307 185.448 306.552 185 306 185H305ZM303 319C303 318.448 303.448 318 304 318H305C305.552 318 306 318.448 306 319V320C306 320.552 305.552 321 305 321H304C303.448 321 303 320.552 303 320V319ZM299 238C298.448 238 298 238.448 298 239V240C298 240.552 298.448 241 299 241H300C300.552 241 301 240.552 301 240V239C301 238.448 300.552 238 300 238H299ZM141 235C141 234.448 141.448 234 142 234H143C143.552 234 144 234.448 144 235V236C144 236.552 143.552 237 143 237H142C141.448 237 141 236.552 141 236V235Z" fill="#5C9FFF"/>
<path d="M270.5 61C270.5 61.2761 270.724 61.5 271 61.5H405C421.292 61.5 434.5 48.2924 434.5 32V31C434.5 14.1553 420.845 0.5 404 0.5H301C284.155 0.5 270.5 14.1553 270.5 31V61Z" fill="white" stroke="#DAE0E8" stroke-linecap="round" stroke-linejoin="round"/>
<circle cx="394" cy="30" r="16" fill="#FFDBB1"/>
<path d="M398 30L401 27L404 30" stroke="#6B7F9F" stroke-width="2" stroke-linecap="round" stroke-linejoin="round"/>
<path d="M385 30L388 27L391 30" stroke="#6B7F9F" stroke-width="2" stroke-linecap="round" stroke-linejoin="round"/>
<path d="M390 38C390 38 391.5 40 394 40C396.5 40 398 38 398 38" stroke="#6B7F9F" stroke-width="2" stroke-linecap="round" stroke-linejoin="round"/>
<path fill-rule="evenodd" clip-rule="evenodd" d="M297.122 37H295.46L300.267 23.9091H301.903L306.71 37H305.048L303.732 33.2926H298.439L297.122 37ZM298.937 31.8864H303.233L301.136 25.9801H301.034L298.937 31.8864ZM308.401 37V27.1818H309.858V28.7159H309.986C310.395 27.6676 311.341 27.054 312.62 27.054C313.911 27.054 314.768 27.6676 315.253 28.7159H315.356C315.861 27.6996 316.89 27.054 318.296 27.054C320.047 27.054 321.287 28.1214 321.287 30.429V37H319.779V30.429C319.779 28.978 318.858 28.4091 317.785 28.4091C316.404 28.4091 315.611 29.3423 315.611 30.608V37H314.077V30.2756C314.077 29.157 313.278 28.4091 312.134 28.4091C310.958 28.4091 309.91 29.4254 309.91 30.8636V37H308.401ZM326.788 37.2301C324.922 37.2301 323.439 36.1307 323.439 34.2131C323.439 31.9631 325.427 31.5604 327.248 31.3239C329.038 31.0937 329.78 31.1321 329.78 30.4034C329.78 29.1314 329.108 28.3835 327.708 28.3835C326.27 28.3835 325.484 29.1506 325.152 29.8665L323.72 29.3551C324.487 27.5653 326.174 27.054 327.657 27.054C328.91 27.054 331.288 27.4119 331.288 30.5312V37H329.78V35.6704H329.703C329.396 36.3097 328.501 37.2301 326.788 37.2301ZM327.018 35.875C328.808 35.875 329.78 34.6733 329.78 33.446V32.0653C329.524 32.3722 327.811 32.5511 327.172 32.6278C325.995 32.7812 324.947 33.1392 324.947 34.2898C324.947 35.3381 325.816 35.875 327.018 35.875ZM333.618 37V35.8494L339.192 28.6903V28.5881H333.541V27.1818H341.135V28.3835L335.715 35.4915V35.5937H341.237V37H333.618ZM343.491 37V27.1818H344.999V37H343.491ZM344.258 25.571C343.67 25.571 343.184 25.1108 343.184 24.5483C343.184 23.9858 343.67 23.5256 344.258 23.5256C344.846 23.5256 345.332 23.9858 345.332 24.5483C345.332 25.1108 344.846 25.571 344.258 25.571ZM349.119 31.0937V37H347.611V27.1818H349.068V28.7159H349.196C349.656 27.7188 350.577 27.054 352.06 27.054C354.048 27.054 355.383 28.2557 355.383 30.7614V37H353.875V30.8636C353.875 29.3232 353.025 28.4091 351.625 28.4091C350.18 28.4091 349.119 29.3807 349.119 31.0937ZM361.907 40.6818C359.81 40.6818 358.557 39.7614 357.944 38.7131L359.145 37.8693C359.529 38.3551 360.219 39.3267 361.907 39.3267C363.415 39.3267 364.719 38.5597 364.694 36.9233V35.1847H364.566C364.233 35.7216 363.62 36.8466 361.702 36.8466C359.324 36.8466 357.535 35.1079 357.535 32.0398C357.535 29.0227 359.248 27.054 361.728 27.054C363.645 27.054 364.259 28.2301 364.591 28.7415H364.745V27.1818H366.202V37.0767C366.202 39.6079 364.182 40.6818 361.907 40.6818ZM361.907 35.4915C363.722 35.4915 364.719 34.1875 364.719 32.0142C364.719 29.892 363.748 28.4091 361.907 28.4091C359.989 28.4091 359.043 30.0199 359.043 32.0142C359.043 34.0597 360.015 35.4915 361.907 35.4915Z" fill="#4B6286"/>
<path d="M244 278.5C243.724 278.5 243.5 278.724 243.5 279V309C243.5 325.845 257.155 339.5 274 339.5H410C426.845 339.5 440.5 325.845 440.5 309C440.5 292.155 426.845 278.5 410 278.5H244Z" fill="#5C9FFF" stroke="#2E85FF" stroke-linecap="round" stroke-linejoin="round"/>
<path fill-rule="evenodd" clip-rule="evenodd" d="M269.438 315V301.909H277.646V303.609H271.413V307.598H277.217V309.292H271.413V313.3H277.722V315H269.438ZM281.497 305.182L283.664 309.004L285.85 305.182H287.94L284.878 310.091L287.966 315H285.876L283.664 311.331L281.459 315H279.362L282.417 310.091L279.4 305.182H281.497ZM294.342 305.182V306.716H292.329V312.111C292.322 313.217 292.885 313.421 293.505 313.421C293.812 313.421 294.048 313.364 294.176 313.338L294.521 314.917C294.297 315 293.888 315.115 293.281 315.121C291.772 315.147 290.411 314.284 290.417 312.507V306.716H288.979V305.182H290.417V302.829H292.329V305.182H294.342ZM296.385 315V305.182H298.232V306.741H298.334C298.692 305.687 299.664 305.035 300.827 305.035C301.364 305.035 301.786 305.175 302.112 305.393L301.498 306.991C301.268 306.876 300.98 306.799 300.61 306.799C299.287 306.799 298.296 307.726 298.296 309.004V315H296.385ZM307.28 315.198C304.384 315.198 302.607 313.204 302.607 310.155C302.607 307.138 304.41 305.054 307.146 305.054C309.37 305.054 311.492 306.441 311.492 309.989V310.666H304.512C304.563 312.558 305.663 313.619 307.299 313.619C308.386 313.619 309.217 313.146 309.562 312.219L311.371 312.545C310.936 314.143 309.421 315.198 307.28 315.198ZM304.519 309.234H309.619C309.613 307.732 308.641 306.633 307.159 306.633C305.605 306.633 304.595 307.841 304.519 309.234ZM313.471 315V305.182H315.305V306.78H315.427C315.836 305.7 316.801 305.054 318.099 305.054C319.409 305.054 320.31 305.706 320.739 306.78H320.841C321.314 305.731 322.375 305.054 323.788 305.054C325.565 305.054 326.817 306.173 326.817 308.416V315H324.906V308.595C324.906 307.266 324.075 306.703 323.065 306.703C321.819 306.703 321.097 307.56 321.097 308.742V315H319.192V308.474C319.192 307.406 318.457 306.703 317.396 306.703C316.309 306.703 315.382 307.624 315.382 308.947V315H313.471ZM333.456 315.198C330.56 315.198 328.783 313.204 328.783 310.155C328.783 307.138 330.586 305.054 333.322 305.054C335.546 305.054 337.668 306.441 337.668 309.989V310.666H330.688C330.739 312.558 331.839 313.619 333.475 313.619C334.562 313.619 335.393 313.146 335.738 312.219L337.547 312.545C337.112 314.143 335.597 315.198 333.456 315.198ZM330.694 309.234H335.795C335.789 307.732 334.817 306.633 333.334 306.633C331.781 306.633 330.771 307.841 330.694 309.234ZM341.558 301.909V315H339.647V301.909H341.558ZM345.115 318.816C344.521 318.816 344.041 318.688 343.837 318.592L344.297 317.007C345.352 317.288 346.01 317.167 346.515 315.901L346.822 315.147L343.204 305.182H345.25L347.736 312.801H347.838L350.325 305.182H352.377L348.286 316.432C347.73 317.959 346.701 318.816 345.115 318.816ZM360.553 309.17V315H358.641V301.909H360.527V306.78H360.648C361.109 305.719 362.029 305.054 363.557 305.054C365.577 305.054 366.919 306.307 366.919 308.755V315H365.008V308.985C365.008 307.547 364.222 306.709 362.905 306.709C361.543 306.709 360.553 307.604 360.553 309.17ZM373.557 315.198C370.662 315.198 368.885 313.204 368.885 310.155C368.885 307.138 370.687 305.054 373.423 305.054C375.648 305.054 377.77 306.441 377.77 309.989V310.666H370.79C370.841 312.558 371.94 313.619 373.577 313.619C374.663 313.619 375.494 313.146 375.839 312.219L377.648 312.545C377.214 314.143 375.699 315.198 373.557 315.198ZM370.796 309.234H375.897C375.89 307.732 374.919 306.633 373.436 306.633C371.883 306.633 370.873 307.841 370.796 309.234ZM381.66 301.909V315H379.748V301.909H381.66ZM388.943 315.192C387.147 315.192 386.451 314.099 386.105 313.472H385.99V318.682H384.079V305.182H385.946V306.773H386.105C386.444 306.166 387.103 305.054 388.924 305.054C391.302 305.054 393.047 306.927 393.047 310.11C393.047 313.287 391.328 315.192 388.943 315.192ZM388.515 313.562C390.222 313.562 391.117 312.06 391.117 310.091C391.117 308.141 390.247 306.678 388.515 306.678C386.847 306.678 385.958 308.045 385.952 310.091C385.958 312.162 386.872 313.562 388.515 313.562ZM399.743 305.182V306.716H397.627V315H395.71V306.716H394.195V305.182H395.71V304.044C395.71 302.203 397.071 301.295 398.624 301.295C399.398 301.295 399.954 301.455 400.222 301.557L399.775 303.104C399.596 303.047 399.315 302.957 398.918 302.957C397.985 302.957 397.627 303.43 397.627 304.3V305.182H399.743ZM407.781 310.928V305.182H409.699V315H407.82V313.3H407.717C407.264 314.348 406.26 315.128 404.783 315.128C402.898 315.128 401.562 313.862 401.562 311.427V305.182H403.473V311.197C403.473 312.533 404.291 313.389 405.474 313.389C406.548 313.389 407.788 312.597 407.781 310.928ZM414.023 301.909V315H412.112V301.909H414.023Z" fill="white"/>
<path d="M185.5 251C185.5 250.724 185.276 250.5 185 250.5H73C56.7076 250.5 43.5 263.708 43.5 280V283C43.5 298.74 56.2599 311.5 72 311.5H156C172.292 311.5 185.5 298.292 185.5 282V251Z" fill="white" stroke="#DAE0E8" stroke-linecap="round" stroke-linejoin="round"/>
<path fill-rule="evenodd" clip-rule="evenodd" d="M68.8694 275.315V273.909H78.6876V275.315H74.5711V287H72.9859V275.315H68.8694ZM82.2961 281.094V287H80.7876V273.909H82.2961V278.716H82.4239C82.8842 277.7 83.7663 277.054 85.3131 277.054C87.3202 277.054 88.6626 278.237 88.6626 280.761V287H87.154V280.864C87.154 279.304 86.2975 278.409 84.8785 278.409C83.3891 278.409 82.2961 279.381 82.2961 281.094ZM94.1631 287.23C92.2967 287.23 90.8137 286.131 90.8137 284.213C90.8137 281.963 92.8016 281.56 94.6234 281.324C96.4131 281.094 97.1546 281.132 97.1546 280.403C97.1546 279.131 96.4834 278.384 95.0836 278.384C93.6454 278.384 92.8592 279.151 92.5268 279.866L91.095 279.355C91.862 277.565 93.5495 277.054 95.0324 277.054C96.2853 277.054 98.6631 277.412 98.6631 280.531V287H97.1546V285.67H97.0779C96.7711 286.31 95.8762 287.23 94.1631 287.23ZM94.3932 285.875C96.183 285.875 97.1546 284.673 97.1546 283.446V282.065C96.8989 282.372 95.1859 282.551 94.5467 282.628C93.3705 282.781 92.3222 283.139 92.3222 284.29C92.3222 285.338 93.1915 285.875 94.3932 285.875ZM102.783 281.094V287H101.274V277.182H102.732V278.716H102.86C103.32 277.719 104.24 277.054 105.723 277.054C107.711 277.054 109.047 278.256 109.047 280.761V287H107.539V280.864C107.539 279.323 106.689 278.409 105.289 278.409C103.844 278.409 102.783 279.381 102.783 281.094ZM111.659 287V273.909H113.167V281.554H113.346L117.642 277.182H119.508L115.36 281.375L119.815 287H117.897L114.222 282.347L113.167 283.325V287H111.659ZM127.134 290.81C126.623 290.81 126.188 290.707 126.035 290.631L126.418 289.301C127.518 289.582 128.182 289.429 128.745 287.972L129.103 287.077L125.447 277.182H127.083L129.793 285.006H129.896L132.606 277.182H134.242L130.023 288.585C129.461 290.094 128.515 290.81 127.134 290.81ZM139.717 287.205C137.058 287.205 135.268 285.185 135.268 282.142C135.268 279.074 137.058 277.054 139.717 277.054C142.376 277.054 144.166 279.074 144.166 282.142C144.166 285.185 142.376 287.205 139.717 287.205ZM139.717 285.849C141.737 285.849 142.657 284.111 142.657 282.142C142.657 280.173 141.737 278.409 139.717 278.409C137.697 278.409 136.777 280.173 136.777 282.142C136.777 284.111 137.697 285.849 139.717 285.849ZM152.505 282.986V277.182H154.013V287H152.505V285.338H152.402C151.942 286.335 150.971 287.128 149.488 287.128C147.647 287.128 146.317 285.926 146.317 283.42V277.182H147.826V283.318C147.826 284.75 148.721 285.67 149.973 285.67C151.098 285.67 152.505 284.827 152.505 282.986ZM158.619 273.909L158.491 283.318H157.008L156.88 273.909H158.619ZM157.749 287.205C157.059 287.205 156.522 286.668 156.522 285.977C156.522 285.287 157.059 284.75 157.749 284.75C158.44 284.75 158.977 285.287 158.977 285.977C158.977 286.668 158.44 287.205 157.749 287.205Z" fill="#4B6286"/>
<path d="M168 173.5C168.276 173.5 168.5 173.276 168.5 173V141C168.5 125.26 155.74 112.5 140 112.5H31C14.1553 112.5 0.5 126.155 0.5 143C0.5 159.845 14.1553 173.5 31 173.5H168Z" fill="#5C9FFF" stroke="#2E85FF" stroke-linecap="round" stroke-linejoin="round"/>
<path fill-rule="evenodd" clip-rule="evenodd" d="M27.5825 135.909L31.2259 146.571H31.3729L35.0164 135.909H37.1513L32.4404 149H30.1584L25.4475 135.909H27.5825ZM41.9807 149.198C39.0851 149.198 37.3082 147.204 37.3082 144.155C37.3082 141.138 39.1107 139.054 41.8465 139.054C44.0709 139.054 46.1931 140.441 46.1931 143.989V144.666H39.213C39.2641 146.558 40.3636 147.619 41.9999 147.619C43.0866 147.619 43.9175 147.146 44.2627 146.219L46.0716 146.545C45.637 148.143 44.1221 149.198 41.9807 149.198ZM39.2194 143.234H44.3202C44.3138 141.732 43.3422 140.633 41.8593 140.633C40.306 140.633 39.2961 141.841 39.2194 143.234ZM48.1717 149V139.182H50.019V140.742H50.1212C50.4792 139.687 51.4508 139.035 52.6141 139.035C53.1511 139.035 53.5729 139.175 53.8989 139.393L53.2853 140.991C53.0552 140.876 52.7675 140.799 52.3968 140.799C51.0736 140.799 50.0829 141.726 50.0829 143.004V149H48.1717ZM56.3313 152.816C55.7369 152.816 55.2575 152.688 55.0529 152.592L55.5131 151.007C56.5678 151.288 57.2262 151.167 57.7312 149.901L58.038 149.147L54.4201 139.182H56.4655L58.952 146.801H59.0543L61.5408 139.182H63.5927L59.5018 150.432C58.9457 151.96 57.9165 152.816 56.3313 152.816ZM72.7146 149.217C70.8481 149.217 69.3971 148.156 69.3971 146.226C69.3971 143.995 71.3019 143.509 73.162 143.292C73.3282 143.273 73.488 143.254 73.6414 143.241C75.0604 143.081 75.6485 143.017 75.6421 142.378C75.6421 141.253 75.0221 140.601 73.7756 140.601C72.4908 140.601 71.7749 141.272 71.4937 141.969L69.6975 141.56C70.3367 139.77 71.9667 139.054 73.7628 139.054C75.3033 139.054 77.5597 139.623 77.5597 142.48V149H75.6932V147.658H75.6165C75.2522 148.393 74.3381 149.217 72.7146 149.217ZM73.13 147.683C74.7217 147.683 75.6485 146.622 75.6485 145.459V144.193C75.3736 144.468 73.9035 144.634 73.2834 144.717C72.1776 144.864 71.27 145.229 71.27 146.251C71.27 147.197 72.0498 147.683 73.13 147.683ZM84.0894 149.198C81.2386 149.198 79.5127 147.095 79.5127 144.136C79.5127 141.138 81.3025 139.054 84.0702 139.054C86.3011 139.054 87.9182 140.371 88.1228 142.352H86.2627C86.0582 141.432 85.3167 140.665 84.1022 140.665C82.5042 140.665 81.4431 141.988 81.4431 144.091C81.4431 146.232 82.485 147.581 84.1022 147.581C85.1952 147.581 86.0198 146.955 86.2627 145.893H88.1228C87.9118 147.805 86.4097 149.198 84.0894 149.198ZM94.1603 149.198C91.3094 149.198 89.5836 147.095 89.5836 144.136C89.5836 141.138 91.3734 139.054 94.1411 139.054C96.3719 139.054 97.9891 140.371 98.1937 142.352H96.3336C96.129 141.432 95.3876 140.665 94.1731 140.665C92.5751 140.665 91.514 141.988 91.514 144.091C91.514 146.232 92.5559 147.581 94.1731 147.581C95.2661 147.581 96.0907 146.955 96.3336 145.893H98.1937C97.9827 147.805 96.4806 149.198 94.1603 149.198ZM106.315 144.928V139.182H108.233V149H106.353V147.3H106.251C105.797 148.348 104.794 149.128 103.317 149.128C101.431 149.128 100.096 147.862 100.096 145.427V139.182H102.007V145.197C102.007 146.533 102.825 147.389 104.007 147.389C105.081 147.389 106.321 146.597 106.315 144.928ZM110.646 149V139.182H112.493V140.742H112.595C112.953 139.687 113.925 139.035 115.088 139.035C115.625 139.035 116.047 139.175 116.373 139.393L115.759 140.991C115.529 140.876 115.242 140.799 114.871 140.799C113.548 140.799 112.557 141.726 112.557 143.004V149H110.646ZM120.435 149.217C118.569 149.217 117.118 148.156 117.118 146.226C117.118 143.995 119.023 143.509 120.883 143.292C121.049 143.273 121.209 143.254 121.362 143.241C122.781 143.081 123.369 143.017 123.363 142.378C123.363 141.253 122.743 140.601 121.497 140.601C120.212 140.601 119.496 141.272 119.215 141.969L117.418 141.56C118.058 139.77 119.688 139.054 121.484 139.054C123.024 139.054 125.281 139.623 125.281 142.48V149H123.414V147.658H123.337C122.973 148.393 122.059 149.217 120.435 149.217ZM120.851 147.683C122.443 147.683 123.369 146.622 123.369 145.459V144.193C123.095 144.468 121.624 144.634 121.004 144.717C119.898 144.864 118.991 145.229 118.991 146.251C118.991 147.197 119.771 147.683 120.851 147.683ZM132.258 139.182V140.716H130.244V146.111C130.238 147.217 130.8 147.421 131.42 147.421C131.727 147.421 131.964 147.364 132.092 147.338L132.437 148.917C132.213 149 131.804 149.115 131.197 149.121C129.688 149.147 128.327 148.284 128.333 146.507V140.716H126.895V139.182H128.333V136.83H130.244V139.182H132.258ZM138.429 149.198C135.534 149.198 133.757 147.204 133.757 144.155C133.757 141.138 135.559 139.054 138.295 139.054C140.52 139.054 142.642 140.441 142.642 143.989V144.666H135.662C135.713 146.558 136.812 147.619 138.449 147.619C139.535 147.619 140.366 147.146 140.711 146.219L142.52 146.545C142.086 148.143 140.571 149.198 138.429 149.198ZM135.668 143.234H140.769C140.763 141.732 139.791 140.633 138.308 140.633C136.755 140.633 135.745 141.841 135.668 143.234Z" fill="white"/>
<path d="M338 135.5C337.724 135.5 337.5 135.724 337.5 136V168C337.5 183.74 350.26 196.5 366 196.5H438C454.292 196.5 467.5 183.292 467.5 167V165C467.5 148.708 454.292 135.5 438 135.5H338Z" fill="white" stroke="#DAE0E8" stroke-linecap="round" stroke-linejoin="round"/>
<path fill-rule="evenodd" clip-rule="evenodd" d="M363.585 172V158.909H371.486V160.315H365.17V164.739H371.077V166.145H365.17V170.594H371.588V172H363.585ZM375.12 162.182L377.472 166.196L379.824 162.182H381.563L378.393 167.091L381.563 172H379.824L377.472 168.19L375.12 172H373.381L376.501 167.091L373.381 162.182H375.12ZM387.14 172.205C384.379 172.205 382.691 170.082 382.691 167.142C382.691 164.151 384.456 162.054 387.115 162.054C389.186 162.054 390.745 163.281 391.001 165.122H389.493C389.262 164.227 388.47 163.409 387.14 163.409C385.376 163.409 384.2 164.866 384.2 167.091C384.2 169.366 385.351 170.849 387.14 170.849C388.316 170.849 389.211 170.21 389.493 169.136H391.001C390.745 170.875 389.314 172.205 387.14 172.205ZM397.166 172.205C394.328 172.205 392.59 170.185 392.59 167.168C392.59 164.151 394.354 162.054 397.013 162.054C399.058 162.054 401.232 163.307 401.232 166.963V167.602H394.105C394.175 169.705 395.396 170.849 397.166 170.849C398.349 170.849 399.237 170.338 399.621 169.315L401.078 169.724C400.618 171.207 399.161 172.205 397.166 172.205ZM394.105 166.298H399.698C399.698 164.636 398.649 163.409 397.013 163.409C395.287 163.409 394.207 164.771 394.105 166.298ZM404.891 158.909V172H403.383V158.909H404.891ZM409.011 158.909V172H407.503V158.909H409.011ZM415.739 172.205C412.901 172.205 411.162 170.185 411.162 167.168C411.162 164.151 412.927 162.054 415.586 162.054C417.631 162.054 419.805 163.307 419.805 166.963V167.602H412.677C412.748 169.705 413.969 170.849 415.739 170.849C416.922 170.849 417.81 170.338 418.194 169.315L419.651 169.724C419.191 171.207 417.733 172.205 415.739 172.205ZM412.677 166.298H418.27C418.27 164.636 417.222 163.409 415.586 163.409C413.86 163.409 412.78 164.771 412.677 166.298ZM423.464 166.094V172H421.956V162.182H423.413V163.716H423.541C424.001 162.719 424.922 162.054 426.405 162.054C428.392 162.054 429.728 163.256 429.728 165.761V172H428.22V165.864C428.22 164.323 427.37 163.409 425.97 163.409C424.525 163.409 423.464 164.381 423.464 166.094ZM436.61 162.182V163.46H434.513V169.188C434.513 170.466 435.152 170.67 435.817 170.67C436.149 170.67 436.354 170.619 436.482 170.594L436.789 171.949C436.584 172.026 436.226 172.128 435.664 172.128C434.385 172.128 433.005 171.31 433.005 169.597V163.46H431.522V162.182H433.005V159.83H434.513V162.182H436.61ZM440.832 158.909L440.704 168.318H439.221L439.093 158.909H440.832ZM439.962 172.205C439.272 172.205 438.735 171.668 438.735 170.977C438.735 170.287 439.272 169.75 439.962 169.75C440.653 169.75 441.19 170.287 441.19 170.977C441.19 171.668 440.653 172.205 439.962 172.205Z" fill="#4B6286"/>
</svg>
