<svg width="384" height="191" viewBox="0 0 384 191" fill="none" xmlns="http://www.w3.org/2000/svg">
<mask id="mask0_8129_73884" style="mask-type:alpha" maskUnits="userSpaceOnUse" x="0" y="0" width="384" height="191">
<rect y="0.359375" width="384" height="190" fill="#D9D9D9"/>
</mask>
<g mask="url(#mask0_8129_73884)">
<path d="M126.682 156.148C154.267 165.982 178.724 164.67 207.322 162.297C259.465 157.97 302.796 138.959 320.6 115.955C346.733 82.19 326.594 48.7201 284.249 33.2502C246.842 19.5821 165.114 0.271028 110.464 19.3803C70.8686 33.2255 43.8045 60.3717 44.6706 88.5133C45.425 113.017 71.0277 133.272 102.742 146.777C109.933 149.839 118.022 153.06 126.682 156.148Z" fill="#FBE2C7"/>
<path d="M86.5675 98.8666C52.6637 94.603 17.7479 131.782 29.3249 164.783C39.6728 194.272 63.3385 191.55 80.5614 188.008C97.785 184.467 123.688 171.391 130.505 154.636C137.325 137.881 128.035 104.08 86.5675 98.8666Z" fill="#FDF0E3"/>
<mask id="mask1_8129_73884" style="mask-type:luminance" maskUnits="userSpaceOnUse" x="27" y="98" width="106" height="93">
<path d="M29.3253 164.784C39.6727 194.273 63.3385 191.55 80.5621 188.009C97.785 184.467 123.687 171.391 130.505 154.637C137.324 137.881 128.034 104.08 86.5675 98.867C75.8794 97.5226 65.0874 100.299 55.6863 105.763C35.2664 117.631 21.3974 142.186 29.3253 164.784Z" fill="white"/>
</mask>
<g mask="url(#mask1_8129_73884)">
<mask id="mask2_8129_73884" style="mask-type:alpha" maskUnits="userSpaceOnUse" x="50" y="186" width="51" height="29">
<path d="M50.5684 214.484C52.3393 201.238 56.8823 190.874 59.7765 186.217H96.1691L100.643 214.484H50.5684Z" fill="#1E4759"/>
</mask>
<g mask="url(#mask2_8129_73884)">
<path d="M50.5684 214.484C52.3393 201.238 56.8823 190.874 59.7765 186.217H96.1691L100.643 214.484H50.5684Z" fill="#1E4759"/>
<g opacity="0.3">
<path d="M56.3047 175.665V259.568" stroke="white" stroke-width="0.451207" stroke-linecap="round"/>
<path d="M65.8867 175.665V259.568" stroke="white" stroke-width="0.451207" stroke-linecap="round"/>
<path d="M75.4707 175.665V259.568" stroke="white" stroke-width="0.451207" stroke-linecap="round"/>
<path d="M85.0508 175.665V259.568" stroke="white" stroke-width="0.451207" stroke-linecap="round"/>
<path d="M94.6328 175.665V259.568" stroke="white" stroke-width="0.451207" stroke-linecap="round"/>
<path d="M117.354 188.826H33.5872" stroke="white" stroke-width="0.451207" stroke-linecap="round"/>
</g>
</g>
<mask id="mask3_8129_73884" style="mask-type:alpha" maskUnits="userSpaceOnUse" x="51" y="137" width="56" height="52">
<path d="M59.7909 141.249C62.6235 139.995 68.8008 138.472 74.3074 137.868C82.2932 136.992 91.7301 137.037 97.116 140.325C100.94 142.66 104.749 153.601 106.927 161.571L97.5107 164.155L96.1494 186.215C85.2415 190.883 66.3966 188.16 59.7909 186.215L64.8576 164.363L51.2578 166.267C52.68 144.899 55.9688 142.941 59.7909 141.249Z" fill="#009F96"/>
</mask>
<g mask="url(#mask3_8129_73884)">
<path d="M59.7909 141.249C62.6235 139.995 68.8008 138.472 74.3074 137.868C82.2932 136.992 91.7301 137.037 97.116 140.325C100.94 142.66 104.749 153.601 106.927 161.571L97.5107 164.155L96.1494 186.215C85.2415 190.883 66.3966 188.16 59.7909 186.215L64.8576 164.363L51.2578 166.267C52.68 144.899 55.9688 142.941 59.7909 141.249Z" fill="#F4B572"/>
<path d="M96.9102 161.746L106.382 159.345L107.435 161.664L97.7521 164.405L96.9102 161.746Z" fill="#1E4759"/>
<path d="M64.8618 161.803V164.683L51.0996 166.593V163.5L64.8618 161.803Z" fill="#1E4759"/>
<ellipse cx="79.4272" cy="139.018" rx="10.1342" ry="10.1508" fill="#1E4759"/>
</g>
<path d="M92.6384 111.533C92.6384 111.533 94.2222 119.15 95.7932 129.203C96.6952 134.975 96.7403 149.56 83.0404 139.396C69.8063 133.497 92.6384 111.533 92.6384 111.533Z" fill="#B04445"/>
<path d="M88.6417 111.063C91.0076 111.007 92.2496 113.085 92.4529 115.459C93.0259 122.602 93.1332 132.267 91.3773 135.012C89.1408 138.518 83.5588 137.888 78.5498 134.79C73.4114 131.599 71.9512 126.479 71.9512 126.479L72.2654 115.459C72.3208 113.178 74.1692 111.36 76.4242 111.304L88.6417 111.063Z" fill="#F3998F"/>
<path d="M91.201 119.594C92.4858 119.939 93.4483 120.514 93.3508 120.879C93.2533 121.243 92.1327 121.259 90.8479 120.914C89.563 120.57 88.6005 119.995 88.698 119.63C88.7955 119.266 89.9161 119.25 91.201 119.594Z" fill="#B04445"/>
<path d="M81.2096 119.613C79.9597 120.069 79.0509 120.726 79.1797 121.08C79.3086 121.435 80.4263 121.353 81.6763 120.897C82.9262 120.442 83.835 119.785 83.7061 119.43C83.5773 119.076 82.4596 119.158 81.2096 119.613Z" fill="#B04445"/>
<path d="M87.4648 125.393L88.2742 128.698" stroke="#183947" stroke-width="0.676811" stroke-miterlimit="10" stroke-linecap="round" stroke-linejoin="round"/>
<path d="M80.5078 125.139C81.4381 124.629 82.514 124.435 83.8613 124.561C83.2044 124.021 82.4196 123.639 80.6845 123.682" stroke="#183947" stroke-width="0.676811" stroke-miterlimit="10" stroke-linecap="round" stroke-linejoin="round"/>
<path d="M92.4844 125.139C91.385 124.562 90.5146 124.441 89.1308 124.562C89.4674 124.289 90.7808 123.631 92.2882 123.631" stroke="#183947" stroke-width="0.676811" stroke-miterlimit="10" stroke-linecap="round" stroke-linejoin="round"/>
<path d="M93.1623 115.923C91.4784 115.923 86.5979 116.573 80.7879 116.573C75.0359 116.573 77.5251 126.163 73.9057 121.711C70.6904 117.76 73.1151 124.512 73.1151 124.512V143.008C72.6855 143.736 60.6777 137.979 61.029 132.636C62.1733 115.229 71.6102 98.4986 89.7888 107.056C89.7888 107.056 92.5323 107.224 93.8852 108.856C95.6773 111.045 94.5327 115.923 93.1623 115.923Z" fill="#B04445"/>
<mask id="mask4_8129_73884" style="mask-type:alpha" maskUnits="userSpaceOnUse" x="72" y="126" width="13" height="21">
<path d="M72 126.449V140.261C72 143.543 74.5226 146.285 77.7934 146.529C81.4294 146.808 84.5436 143.927 84.5436 140.261V133.259L72 126.449Z" fill="#F49186"/>
</mask>
<g mask="url(#mask4_8129_73884)">
<path d="M72 126.449V140.261C72 143.543 74.5226 146.285 77.7934 146.529C81.4294 146.808 84.5436 143.927 84.5436 140.261V133.259L72 126.449Z" fill="#F3998F"/>
<path d="M75.0606 132.207C78.539 135.513 82.4802 136.746 83.805 136.96L83.805 139.486C79.5284 139.486 75.4965 134.814 75.0606 132.207Z" fill="#DE7F75"/>
</g>
<path d="M75.0734 123.715C75.0734 125.588 73.5578 127.685 71.6724 127.685C69.8056 127.685 68.2715 125.607 68.2715 123.715C68.2715 121.822 69.7871 120.301 71.6724 120.301C73.5578 120.32 75.0734 121.841 75.0734 123.715Z" fill="#F3998F"/>
<path d="M72.532 122.849C71.8332 122.431 70.2689 123.128 70.7898 124.891" stroke="#183947" stroke-width="0.586569" stroke-miterlimit="10" stroke-linecap="round"/>
<mask id="mask5_8129_73884" style="mask-type:alpha" maskUnits="userSpaceOnUse" x="75" y="126" width="24" height="23">
<rect width="17.7331" height="17.1537" rx="2.25604" transform="matrix(0.865671 -0.500614 0.499387 0.866379 74.9863 134.518)" fill="#F2F2F2"/>
</mask>
<g mask="url(#mask5_8129_73884)">
<rect width="17.7331" height="17.1537" rx="2.25604" transform="matrix(0.865671 -0.500614 0.499387 0.866379 74.9863 134.518)" fill="#ECE9E9"/>
<path d="M94.1603 141.525L90.8741 131.387C90.5466 130.377 89.4274 129.877 88.4747 130.347C83.7788 132.663 75.3506 137.256 76.2956 133.778L74.7012 134.409L81.3562 145.317L94.1603 141.525Z" fill="#FFFCFC"/>
</g>
<mask id="mask6_8129_73884" style="mask-type:alpha" maskUnits="userSpaceOnUse" x="85" y="132" width="22" height="51">
<path d="M102.371 182.311C106.938 179.81 106.967 173.137 105.453 161.96L98.0746 163.974L92.0927 151.329C92.0927 147.285 95.749 144.183 95.5594 140.386C95.4883 138.961 92.8718 133.787 91.1313 132.664C89.7389 131.767 89.5509 133.292 89.6309 134.167C88.5266 133.863 88.6435 135.037 88.84 135.662C88.2862 135.523 88.0182 136.181 87.9535 136.527L85.3789 151.593C87.9535 172.82 96.6628 185.438 102.371 182.311Z" fill="#FCA69C"/>
</mask>
<g mask="url(#mask6_8129_73884)">
<path d="M102.371 182.311C106.938 179.81 106.967 173.137 105.453 161.96L98.0746 163.974L92.0927 151.329C92.0927 147.285 95.749 144.183 95.5594 140.386C95.4883 138.961 92.8718 133.787 91.1313 132.664C89.7389 131.767 89.5509 133.292 89.6309 134.167C88.5266 133.863 88.6435 135.037 88.84 135.662C88.2862 135.523 88.0182 136.181 87.9535 136.527L85.3789 151.593C87.9535 172.82 96.6628 185.438 102.371 182.311Z" fill="#FCA69C"/>
<path d="M88.705 140.871C89.3276 136.714 88.6269 136.122 87.6791 136.578L84.373 149.332L85.3594 153.386C88.9986 151.036 88.2968 143.597 88.705 140.871Z" fill="#E18B82"/>
<path d="M98.4907 164.788L98.0762 163.975L105.485 161.727L105.726 163.474L98.4907 164.788Z" fill="#E18B82"/>
</g>
<mask id="mask7_8129_73884" style="mask-type:alpha" maskUnits="userSpaceOnUse" x="53" y="131" width="36" height="56">
<path d="M56.7325 181.852C55.4022 178.298 53.7934 171.47 53.2031 166.011L64.8547 164.354L64.9236 169.613L77.7781 150.519V141.375C77.7781 139.985 82.0941 133.207 83.2158 131.977C83.8417 131.291 84.6712 131.982 84.6712 132.549C85.7245 131.977 86.2905 132.834 86.2905 133.739C86.9677 133.061 87.8409 133.532 87.7375 134.43C87.6503 135.186 87.0025 136.659 87.0025 136.659C87.5315 136.416 88.5553 136.195 88.4181 137.261C88.2808 138.326 87.4171 141.915 87.0025 143.577C86.8995 146.602 85.6962 150.945 85.1074 152.738C81.9356 160.634 74.4097 177.685 69.6798 182.719C63.7675 189.011 58.3954 186.293 56.7325 181.852Z" fill="#FCA69C"/>
</mask>
<g mask="url(#mask7_8129_73884)">
<path d="M56.7325 181.852C55.4022 178.298 53.7934 171.47 53.2031 166.011L64.8547 164.354L64.9236 169.613L77.7781 150.519V141.375C77.7781 139.985 82.0941 133.207 83.2158 131.977C83.8417 131.291 84.6712 131.982 84.6712 132.549C85.7245 131.977 86.2905 132.834 86.2905 133.739C86.9677 133.061 87.8409 133.532 87.7375 134.43C87.6503 135.186 87.0025 136.659 87.0025 136.659C87.5315 136.416 88.5553 136.195 88.4181 137.261C88.2808 138.326 87.4171 141.915 87.0025 143.577C86.8995 146.602 85.6962 150.945 85.1074 152.738C81.9356 160.634 74.4097 177.685 69.6798 182.719C63.7675 189.011 58.3954 186.293 56.7325 181.852Z" fill="#FCA69C"/>
<path d="M52.9922 165.835L53.2923 167.882L64.9183 165.601V164.326L52.9922 165.835Z" fill="#E18B82"/>
</g>
<path d="M98.9242 127.378L102.895 124.036" stroke="#F2896F" stroke-width="0.676811" stroke-linecap="round"/>
<path d="M99.8028 128.991L104.837 127.371" stroke="#F2896F" stroke-width="0.676811" stroke-linecap="round"/>
<path d="M99.7926 130.716L104.332 131.555" stroke="#F2896F" stroke-width="0.676811" stroke-linecap="round"/>
</g>
<path d="M30.9039 6.87522C62.5815 -10.7401 111.604 12.0216 113.233 49.0754C114.685 82.1862 90.3257 88.875 71.9822 92.2075C53.6382 95.5404 22.9927 92.9268 9.67487 79.1401C-3.64546 65.3531 -7.84055 28.4179 30.9039 6.87522Z" fill="#F9D3AA"/>
<mask id="mask8_8129_73884" style="mask-type:luminance" maskUnits="userSpaceOnUse" x="0" y="0" width="114" height="94">
<path d="M30.904 6.87486C-7.84042 28.417 -3.6454 65.3527 9.67492 79.1397C22.9927 92.9263 53.6382 95.54 71.9818 92.207C90.3257 88.8746 114.685 82.1858 113.233 49.075C112.117 23.7021 88.7843 5.0317 64.0101 1.43721C52.6046 -0.218032 40.89 1.32203 30.904 6.87486Z" fill="white"/>
</mask>
<g mask="url(#mask8_8129_73884)">
<mask id="mask9_8129_73884" style="mask-type:luminance" maskUnits="userSpaceOnUse" x="81" y="85" width="7" height="29">
<path d="M87.154 85.749H81.8828V113.964H87.154V85.749Z" fill="white"/>
</mask>
<g mask="url(#mask9_8129_73884)">
<path d="M81.8828 113.964V85.749L87.154 113.143L81.8828 113.964Z" fill="#1E4759"/>
</g>
<path d="M92.4781 94.2413L77.1034 99.1582L75.1311 99.7906L72.0508 81.9715L72.7043 60.1731C73.4304 60.5227 74.1451 60.9056 74.8262 61.3105C76.3666 62.2261 77.7518 63.275 78.8266 64.4683C83.7632 69.9623 90.7996 89.3243 92.2787 93.4977C92.2843 93.5033 92.2843 93.5143 92.2898 93.5199L92.4781 94.2413Z" fill="#DC5556"/>
<path d="M73.0661 49.4458C73.4708 55.6225 59.5863 62.2816 59.0876 61.4384H46.3778C45.8795 62.2816 31.995 55.6225 32.3993 49.4458C33.0974 38.8241 36.395 28.3506 42.5773 22.4201C48.9101 16.3448 58.2003 17.455 62.8885 22.4201C68.7707 28.6495 72.368 38.8241 73.0661 49.4458Z" fill="#F4B572"/>
<path d="M77.5937 130.974C72.7736 132.799 32.0677 132.278 28.3505 130.974C23.3693 129.226 27.8905 124.153 27.9568 120.851C28.0899 113.959 33.7259 61.7091 33.7259 61.7091C35.0223 60.6883 42.8328 56.9268 42.8328 56.9268L47.3263 56.0056H59.3933L62.0859 56.638L65.144 57.3539H65.1555C67.4659 58.0144 70.1805 58.9415 72.7068 60.1735C73.4326 60.5227 74.1477 60.906 74.8288 61.311C75.2281 66.4553 76.4245 82.399 77.106 99.1586C77.3994 106.312 77.5937 113.62 77.5937 120.297C77.5937 126.417 82.4137 129.153 77.5937 130.974Z" fill="#DC5556"/>
<path d="M62.1195 57.4263C62.1195 62.7648 57.7978 67.0937 52.4734 67.0937C47.1436 67.0937 42.8223 62.7648 42.8223 57.4263C42.8223 57.2598 42.8278 57.0933 42.8333 56.9268L47.3264 56.0056H59.3934L62.0864 56.638C62.1085 56.8991 62.1195 57.1601 62.1195 57.4263Z" fill="#1E4759"/>
<path d="M59.582 41.9434V57.4241C59.582 61.1035 56.6509 64.1765 52.8508 64.4499C48.6264 64.7634 45.0078 61.5341 45.0078 57.4241V41.9434H59.582Z" fill="#E07778"/>
<path d="M59.5809 41.9414V57.4243C59.5809 61.1037 56.6499 64.1729 52.8493 64.4501C48.6275 64.761 45.0098 61.5309 45.0098 57.4243V41.9414H59.5809Z" fill="#FFD4D1"/>
<path d="M59.5809 49.2688V55.6064C51.4641 57.5322 46.8545 54.3412 45.0097 51.766C44.7325 51.3832 44.5165 51.0114 44.3613 50.6729L45.0097 50.612L59.5809 49.2688Z" fill="#FFB1A9"/>
<path d="M35.1543 39.8032C35.1543 41.964 36.9034 43.716 39.0607 43.716C41.2184 43.716 42.9667 41.964 42.9667 39.8032C42.9667 37.642 41.2184 35.8904 39.0607 35.8904C36.9034 35.8904 35.1543 37.642 35.1543 39.8032Z" fill="#FFD4D1"/>
<path d="M39.5308 38.1793C38.6783 37.6687 36.7689 38.5187 37.4046 40.6709" stroke="#1E4759" stroke-width="0.71116" stroke-miterlimit="10" stroke-linecap="round"/>
<path d="M69.5624 39.8032C69.5624 41.964 67.8137 43.716 65.6564 43.716C63.4987 43.716 61.75 41.964 61.75 39.8032C61.75 37.642 63.4987 35.8904 65.6564 35.8904C67.8137 35.8904 69.5624 37.642 69.5624 39.8032Z" fill="#FFD4D1"/>
<path d="M65.1855 38.1793C66.0388 37.6687 67.9482 38.5187 67.3118 40.6709" stroke="#1E4759" stroke-width="0.71116" stroke-miterlimit="10" stroke-linecap="round"/>
<path d="M63.974 44.8851L64.8515 34.2238C65.4586 26.8505 59.6479 20.5308 52.262 20.5308C44.8757 20.5308 39.0654 26.8505 39.6725 34.2238L40.5637 45.0542C40.8804 48.8971 43.3004 52.2465 46.8463 53.7481C50.2204 55.1777 54.066 55.1777 57.4524 53.7796C61.1028 52.2725 63.6491 48.8264 63.974 44.8851Z" fill="#FFD4D1"/>
<path d="M60.9921 35.3688C60.9921 35.3688 60.5325 33.9426 58.859 33.1859C57.186 32.4283 55.8145 33.0258 55.8145 33.0258" stroke="#1E4759" stroke-width="0.71116" stroke-linecap="round" stroke-linejoin="round"/>
<path d="M43.7617 35.3688C43.7617 35.3688 44.2213 33.9426 45.8948 33.1859C47.5678 32.4283 48.9393 33.0258 48.9393 33.0258" stroke="#1E4759" stroke-width="0.71116" stroke-linecap="round" stroke-linejoin="round"/>
<path d="M57.3211 38.9739C56.8351 38.9739 56.4414 38.4415 56.4414 37.7845C56.4414 37.1273 56.8351 36.5955 57.3211 36.5955C57.807 36.5955 58.2011 37.1273 58.2011 37.7845C58.2011 38.4415 57.807 38.9739 57.3211 38.9739Z" fill="#1E4759"/>
<path d="M47.2273 38.9739C46.7414 38.9739 46.3477 38.4415 46.3477 37.7845C46.3477 37.1273 46.7414 36.5955 47.2273 36.5955C47.7129 36.5955 48.1066 37.1273 48.1066 37.7845C48.1066 38.4415 47.7129 38.9739 47.2273 38.9739Z" fill="#1E4759"/>
<path opacity="0.5" d="M60.0475 44.5852C61.3952 44.5852 62.4876 43.491 62.4876 42.1411C62.4876 40.7913 61.3952 39.697 60.0475 39.697C58.6999 39.697 57.6074 40.7913 57.6074 42.1411C57.6074 43.491 58.6999 44.5852 60.0475 44.5852Z" fill="url(#paint0_radial_8129_73884)"/>
<path d="M51.1283 40.2515L50.5488 43.9607L53.3013 44.2034" stroke="#183947" stroke-width="0.71116" stroke-linecap="round" stroke-linejoin="round"/>
<path d="M49.209 48.315C49.209 48.315 51.928 47.1124 54.9289 48.3192" stroke="#183947" stroke-width="0.71116" stroke-linecap="round" stroke-linejoin="round"/>
<path d="M50.5488 19.8133C50.5488 19.8133 56.8587 32.1867 64.7042 36.0121C67.1017 32.2995 65.1174 27.394 63.0384 24.623C57.0364 16.6224 50.5488 19.8133 50.5488 19.8133Z" fill="#F4B572"/>
<path d="M45.7954 21.2945C43.7661 22.5733 39.9188 27.0508 39.0222 30.1579C38.404 32.3004 38.682 35.8179 39.1922 35.8916C40.0298 36.013 40.7734 36.6705 41.0736 37.561C41.2555 38.101 41.5795 38.7299 42.1475 38.7704C45.0089 38.974 56.0827 29.603 57.7769 26.0637C58.4249 24.7103 59.1519 23.2232 58.5694 21.8396C58.0826 20.6825 56.9466 19.9011 55.7464 19.5378C52.3986 18.5247 48.6806 19.4761 45.7954 21.2945Z" fill="#F4B572"/>
<path opacity="0.5" d="M44.9538 44.5852C46.3014 44.5852 47.3939 43.491 47.3939 42.1411C47.3939 40.7913 46.3014 39.697 44.9538 39.697C43.6062 39.697 42.5137 40.7913 42.5137 42.1411C42.5137 43.491 43.6062 44.5852 44.9538 44.5852Z" fill="url(#paint1_radial_8129_73884)"/>
<path d="M55.4854 31.7986C55.4854 32.069 55.2665 32.2882 54.9966 32.2882C54.7266 32.2882 54.5078 32.069 54.5078 31.7986C54.5078 31.5282 54.9954 30.9465 54.9966 30.939C54.9966 30.939 55.4854 31.5282 55.4854 31.7986Z" fill="#B2E2DF"/>
<path d="M52.8799 34.2576C52.8799 34.5279 52.6611 34.7471 52.3911 34.7471C52.1212 34.7471 51.9023 34.5279 51.9023 34.2576C51.9023 33.9872 52.3899 33.4055 52.3911 33.3979C52.3911 33.3979 52.8799 33.9872 52.8799 34.2576Z" fill="#B2E2DF"/>
<path d="M54.3936 39.3891C54.3936 39.6595 54.1747 39.8787 53.9048 39.8787C53.6348 39.8787 53.416 39.6595 53.416 39.3891C53.416 39.1188 53.9036 38.5371 53.9048 38.5295C53.9048 38.5295 54.3936 39.1188 54.3936 39.3891Z" fill="#B2E2DF"/>
<path d="M63.5498 38.876C63.5498 39.1464 63.331 39.3655 63.061 39.3655C62.7911 39.3655 62.5723 39.1464 62.5723 38.876C62.5723 38.6056 63.0598 38.0239 63.061 38.0164C63.061 38.0164 63.5498 38.6056 63.5498 38.876Z" fill="#B2E2DF"/>
<path d="M69.377 74.0061L75.7425 90.3103" stroke="#1E4759" stroke-width="0.71116" stroke-miterlimit="10" stroke-linecap="round"/>
<path d="M41.3028 26.3174C39.8629 27.4268 38.2943 29.6838 36.7578 31.706C38.4234 31.9824 40.7357 33.6937 43.1913 33.9147C49.0112 34.4384 52.3054 33.5059 54.1149 33.0152C57.059 31.945 56.4565 31.0341 55.7859 31.0569C55.1721 30.9203 52.6172 31.7442 52.6172 31.7442C52.6172 31.7442 55.8882 30.7267 57.0022 30.3656C58.6617 29.7248 58.3548 28.5065 57.0022 28.6659C55.9455 28.7905 52.2827 29.4598 52.2827 29.4598C52.9835 29.3332 54.9519 28.875 56.9336 28.3832C58.4236 28.017 58.3227 26.4431 56.6209 26.689C54.9192 26.935 51.2772 27.6236 51.2772 27.6236C51.2772 27.6236 55.7518 26.9353 56.4565 26.4799C57.2409 25.9903 56.9898 25.2517 55.5813 25.1706C54.9892 25.1606 52.1312 25.0477 49.4545 25.6943C46.9141 26.3078 45.7034 26.6393 45.7034 26.6393C45.8774 26.4098 46.9916 25.3869 48.1435 24.7797C49.0756 24.3774 48.8028 23.4514 47.9947 23.4045C47.2341 23.3527 46.4558 23.7073 45.4306 24.0662C44.1878 24.5216 42.2074 25.6233 41.3028 26.3174Z" fill="#FFD4D1"/>
<path d="M50.1543 33.8445C51.9342 33.6156 53.2117 33.2593 54.1174 33.0137C57.0614 31.9435 56.459 31.0327 55.7883 31.0554C55.1745 30.9188 52.6197 31.7427 52.6197 31.7427C52.6197 31.7427 55.8906 30.7252 57.0046 30.3641C57.2824 30.2568 57.5051 30.1334 57.677 30.0029" stroke="#FFB1A9" stroke-width="0.71116" stroke-linecap="round" stroke-linejoin="round"/>
<path d="M26.0109 52.8732C25.1413 52.2203 24.5654 51.4765 24.5654 51.4765L42.6919 33.3981L39.3601 28.4617C39.3601 28.4617 13.4712 42.1403 10.2643 49.5941C8.09108 54.6452 8.85939 58.2474 14.8655 63.328" fill="#FFD4D1"/>
<path d="M13.4434 63.9792C17.0471 67.0276 23.0488 70.3742 32.5594 74.3705C35.7009 75.6906 42.8313 56.9274 42.8313 56.9274C33.5543 55.3713 28.3261 53.2299 26.2348 52.2217" fill="#DC5556"/>
<path d="M27.6563 52.4494L14.2628 66.7193L10.7422 63.7439L25.9199 50.8984L27.6563 52.4494Z" fill="#1E4759"/>
<path d="M40.5145 35.5728L34.832 41.2401" stroke="#FFB1A9" stroke-width="0.71116" stroke-linecap="round" stroke-linejoin="round"/>
<path d="M84.8145 27.6436V51.5813" stroke="white" stroke-width="4.74107" stroke-miterlimit="10" stroke-linecap="round"/>
<path d="M84.816 57.4101C88.0302 57.4101 90.6359 54.8001 90.6359 51.5806C90.6359 48.3611 88.0302 45.7512 84.816 45.7512C81.6017 45.7512 78.9961 48.3611 78.9961 51.5806C78.9961 54.8001 81.6017 57.4101 84.816 57.4101Z" fill="#D95556" stroke="white" stroke-width="1.42232" stroke-miterlimit="10" stroke-linecap="round"/>
<path d="M84.8145 31.196V51.5815" stroke="#D95556" stroke-width="2.37053" stroke-miterlimit="10" stroke-linecap="round"/>
</g>
<path d="M357.888 38.4301C327.255 15.0695 272.238 31.5218 264.886 70.2405C258.32 104.84 282.92 115.593 301.703 121.898C320.488 128.203 353.113 130.133 369.217 117.668C385.323 105.203 395.355 67.0005 357.888 38.4301Z" fill="#FCEEEE"/>
<path d="M264.886 70.2411C258.32 104.84 282.92 115.593 301.704 121.898C320.488 128.203 353.114 130.134 369.217 117.669C385.323 105.203 395.356 67.001 357.888 38.4307C348.232 31.0666 336.146 27.6585 323.9 27.658C297.299 27.6558 269.92 43.7281 264.886 70.2411Z" fill="#FDF0E3"/>
<mask id="mask10_8129_73884" style="mask-type:luminance" maskUnits="userSpaceOnUse" x="263" y="27" width="121" height="100">
<path d="M264.884 70.2418C258.318 104.841 282.918 115.594 301.702 121.899C320.486 128.204 353.112 130.135 369.215 117.669C385.321 105.204 395.354 67.0017 357.886 38.4314C348.23 31.0673 336.145 27.6592 323.898 27.6587C297.298 27.6565 269.918 43.7289 264.884 70.2418Z" fill="white"/>
</mask>
<g mask="url(#mask10_8129_73884)">
<mask id="mask11_8129_73884" style="mask-type:alpha" maskUnits="userSpaceOnUse" x="285" y="68" width="25" height="69">
<path d="M286.248 105.946C287.897 99.1541 302.04 71.3902 309.262 68.5398V89.3972L296.282 109.254L294.92 136.085H286.708C286.708 136.085 285.444 109.254 286.248 105.946Z" fill="#E37778"/>
</mask>
<g mask="url(#mask11_8129_73884)">
<path d="M286.248 105.946C287.897 99.1541 302.04 71.3902 309.262 68.5398V89.3972L296.282 109.254L294.92 136.085H286.708C286.708 136.085 285.444 109.254 286.248 105.946Z" fill="#C26E59"/>
<path d="M306.667 93.2625C304.471 89.3652 301.869 81.1397 301.17 76.4409L303.53 73.2263L306.667 93.2625Z" fill="#9C4C38"/>
</g>
<mask id="mask12_8129_73884" style="mask-type:alpha" maskUnits="userSpaceOnUse" x="304" y="65" width="46" height="65">
<path d="M344.221 68.4855L332.501 65.7354H322.473L309.599 68.3805C308.322 68.643 307.396 69.7417 307.368 71.0458C307.214 78.2918 306.717 101.834 306.379 119.618C306.327 122.364 302.567 126.579 306.706 128.032C309.796 129.117 343.62 129.546 347.625 128.032C351.629 126.518 347.625 124.243 347.625 119.157C347.625 100.15 345.71 74.9859 345.291 69.7124C345.243 69.1083 344.811 68.6239 344.221 68.4855Z" fill="#009F96"/>
</mask>
<g mask="url(#mask12_8129_73884)">
<path d="M344.221 68.4855L332.501 65.7354H322.473L309.599 68.3805C308.322 68.643 307.396 69.7417 307.368 71.0458C307.214 78.2918 306.717 101.834 306.379 119.618C306.327 122.364 302.567 126.579 306.706 128.032C309.796 129.117 343.62 129.546 347.625 128.032C351.629 126.518 347.625 124.243 347.625 119.157C347.625 100.15 345.71 74.9859 345.291 69.7124C345.243 69.1083 344.811 68.6239 344.221 68.4855Z" fill="#357AAF"/>
<path opacity="0.3" d="M349.122 124.723L318.346 122.224L347.957 121.058L349.122 124.723Z" fill="#1E4759"/>
<path opacity="0.3" d="M343.938 113.897L343.938 90.4514L348.317 113.214L343.938 113.897Z" fill="#1E4759"/>
<ellipse cx="8.01679" cy="8.02992" rx="8.01679" ry="8.02992" transform="matrix(-1 0 0 1 334.766 58.8901)" fill="#1E4759"/>
</g>
<mask id="mask13_8129_73884" style="mask-type:alpha" maskUnits="userSpaceOnUse" x="320" y="54" width="13" height="19">
<path d="M332.66 54.0544V66.918C332.66 69.9754 330.225 72.5286 327.067 72.7562C323.556 73.0164 320.55 70.3331 320.55 66.918V54.0544H332.66Z" fill="#F49186"/>
</mask>
<g mask="url(#mask13_8129_73884)">
<path d="M332.66 54.0544V66.918C332.66 69.9754 330.225 72.5286 327.067 72.7562C323.556 73.0164 320.55 70.3331 320.55 66.918V54.0544H332.66Z" fill="#C26E59"/>
<path d="M333.084 65.3034C325.045 67.3838 321.02 63.508 320.013 61.31L333.084 60.1025V65.3034Z" fill="#9C4C38"/>
</g>
<path d="M312.362 52.274C312.362 54.0697 313.815 55.5253 315.608 55.5253C317.4 55.5253 318.854 54.0697 318.854 52.274C318.854 50.4784 317.4 49.0227 315.608 49.0227C313.815 49.0227 312.362 50.4784 312.362 52.274Z" fill="#C26E59"/>
<path d="M315.998 50.9241C315.289 50.5 313.702 51.2064 314.231 52.9949" stroke="#1E4759" stroke-width="0.479411" stroke-miterlimit="10" stroke-linecap="round"/>
<path d="M340.953 52.274C340.953 54.0697 339.5 55.5253 337.707 55.5253C335.914 55.5253 334.461 54.0697 334.461 52.274C334.461 50.4784 335.914 49.0227 337.707 49.0227C339.5 49.0227 340.953 50.4784 340.953 52.274Z" fill="#C26E59"/>
<path d="M337.316 50.9241C338.025 50.5 339.612 51.2064 339.084 52.9949" stroke="#1E4759" stroke-width="0.479411" stroke-miterlimit="10" stroke-linecap="round"/>
<path d="M336.307 56.5066L337.039 47.6163C337.543 41.4992 332.714 36.2566 326.576 36.2566C320.439 36.2566 315.61 41.4992 316.114 47.6163L316.857 56.6468C317.119 59.8327 319.128 62.6099 322.071 63.8567C324.878 65.0454 328.078 65.0456 330.895 63.8826C333.925 62.6316 336.038 59.7738 336.307 56.5066Z" fill="#C26E59"/>
<mask id="mask14_8129_73884" style="mask-type:alpha" maskUnits="userSpaceOnUse" x="319" y="52" width="15" height="13">
<path d="M323.078 53.0624C322.056 53.5784 320.965 54.1294 319.215 54.3305V61.9086C320.41 63.1465 322.372 64.7757 326.247 64.7757C329.94 64.7757 332.687 63.1689 333.86 61.9086V54.3305C332.11 54.1294 331.019 53.5784 329.997 53.0624C328.982 52.5498 328.035 52.0719 326.579 52.0062V52.0029C326.565 52.0034 326.551 52.0039 326.538 52.0045C326.524 52.0039 326.51 52.0034 326.496 52.0029V52.0062C325.04 52.0719 324.093 52.5498 323.078 53.0624Z" fill="white"/>
</mask>
<g mask="url(#mask14_8129_73884)">
<path d="M323.078 53.0624C322.056 53.5784 320.965 54.1294 319.215 54.3305V61.9086C320.41 63.1465 322.592 64.8308 326.467 64.8308C330.159 64.8308 332.687 63.1689 333.86 61.9086V54.3305C332.11 54.1294 331.019 53.5784 329.997 53.0624C328.982 52.5498 328.035 52.0719 326.579 52.0062V52.0029C326.565 52.0034 326.551 52.0039 326.538 52.0045C326.524 52.0039 326.51 52.0034 326.496 52.0029V52.0062C325.04 52.0719 324.093 52.5498 323.078 53.0624Z" fill="#F5B672"/>
<path d="M320.586 56.0155C322.659 55.6546 325.135 54.3994 326.507 54.4338C327.879 54.4681 330.103 55.7384 332.159 56.0155" stroke="#FADEBF" stroke-width="0.399509" stroke-linecap="round"/>
<path d="M320.586 58.0979C322.659 57.7369 325.039 57.3683 326.411 57.4026C327.782 57.437 330.103 57.8207 332.159 58.0979" stroke="#FADEBF" stroke-width="0.399509" stroke-linecap="round"/>
<path d="M320.586 59.4832C322.659 59.5834 324.8 59.7102 326.172 59.7102C327.96 59.7102 330.103 59.6671 332.159 59.4832" stroke="#FADEBF" stroke-width="0.399509" stroke-linecap="round"/>
<path d="M320.586 61.0964C322.659 61.1966 324.976 61.95 326.348 61.95C328.136 61.95 330.103 61.2804 332.159 61.0964" stroke="#FADEBF" stroke-width="0.399509" stroke-linecap="round"/>
</g>
<path d="M333.279 54.9529L337.096 48.7771" stroke="white" stroke-width="0.399509" stroke-linecap="round"/>
<path d="M319.791 54.9176L316.006 48.7771" stroke="white" stroke-width="0.399509" stroke-linecap="round"/>
<path d="M333.254 61.0437L336.454 55.6885" stroke="white" stroke-width="0.399509" stroke-linecap="round"/>
<path d="M319.596 61.1582L316.621 55.7607" stroke="white" stroke-width="0.399509" stroke-linecap="round"/>
<path d="M333.105 47.2044C333.105 47.2044 332.27 46.2822 330.745 46.2822C329.219 46.2822 328.384 47.2044 328.384 47.2044" stroke="#1E4759" stroke-width="0.599263" stroke-miterlimit="10" stroke-linecap="round" stroke-linejoin="round"/>
<path d="M324.77 46.8275C324.77 46.8275 323.935 45.9052 322.409 45.9052C320.883 45.9052 320.048 46.8275 320.048 46.8275" stroke="#1E4759" stroke-width="0.599263" stroke-miterlimit="10" stroke-linecap="round" stroke-linejoin="round"/>
<path d="M330.781 51.5824C330.377 51.5824 330.05 51.1398 330.05 50.5938C330.05 50.0478 330.377 49.6052 330.781 49.6052C331.184 49.6052 331.512 50.0478 331.512 50.5938C331.512 51.1398 331.184 51.5824 330.781 51.5824Z" fill="#1E4759"/>
<path d="M322.394 51.5824C321.99 51.5824 321.663 51.1398 321.663 50.5938C321.663 50.0478 321.99 49.6052 322.394 49.6052C322.798 49.6052 323.125 50.0478 323.125 50.5938C323.125 51.1398 322.798 51.5824 322.394 51.5824Z" fill="#1E4759"/>
<path d="M323.586 38.9692C317.704 39.4929 316.397 44.9157 316.397 48.7842C315.684 48.4179 313.722 47.1197 313.865 44.3026C313.993 41.7659 315.756 40.5368 316.397 40.0494C316.099 39.2879 315.976 36.3927 318.124 34.8758C320.271 33.3588 323.178 34.2437 324.301 34.8758C327.831 31.0789 334.332 31.2199 337.544 36.7633C339.968 40.9461 339.343 46.176 336.685 49.5059C335.652 48.1918 335.527 45.8982 335.593 44.9157C328.415 44.9157 324.359 40.9223 323.586 38.9692Z" fill="#333333"/>
<mask id="mask15_8129_73884" style="mask-type:alpha" maskUnits="userSpaceOnUse" x="343" y="68" width="17" height="35">
<path d="M359.996 97.5068L354.853 78.0838C353.668 73.6105 350.182 70.1116 345.714 68.9097L343.591 68.3388L343.019 87.3119L345.582 102.12L359.996 97.5068Z" fill="#009F96"/>
</mask>
<g mask="url(#mask15_8129_73884)">
<path d="M359.996 97.5068L354.853 78.0838C353.668 73.6105 350.182 70.1116 345.714 68.9097L343.591 68.3388L343.019 87.3119L345.582 102.12L359.996 97.5068Z" fill="#357AAF"/>
<path d="M344.729 99.0244L359.294 94.1519L360.064 97.5481L345.313 102.505L344.729 99.0244Z" fill="#1E4759"/>
</g>
<path d="M309.702 68.8523C309.702 70.7219 308.566 93.3253 306.904 93.3253C305.243 93.3253 303.186 74.9123 303.186 73.3734C303.186 70.9572 309.702 65.6605 309.702 68.8523Z" fill="#1E4759"/>
<mask id="mask16_8129_73884" style="mask-type:alpha" maskUnits="userSpaceOnUse" x="326" y="98" width="35" height="25">
<path d="M360.172 115.159L357.874 98.1746L345.695 102.081L346.967 111.661L326.381 114.593L327.864 122.039L354.253 121.955C357.874 121.944 360.658 118.748 360.172 115.159Z" fill="#E37778"/>
</mask>
<g mask="url(#mask16_8129_73884)">
<path d="M360.172 115.159L357.874 98.1746L345.695 102.081L346.967 111.661L326.381 114.593L327.864 122.039L354.253 121.955C357.874 121.944 360.658 118.748 360.172 115.159Z" fill="#C26E59"/>
<path d="M358.314 100.568L345.772 103.081L345.582 101.941L357.844 97.7036L358.314 100.568Z" fill="#9C4C38"/>
</g>
<path d="M328.818 114.028C327.134 114.404 325.025 112.308 323.227 111.346C320.115 109.679 317.489 107.866 316.695 106.649C316.695 106.649 315.094 107.886 317.128 110.399C319.162 112.911 318.894 112.664 317.831 112.896C316.769 113.128 313.493 113.071 313.2 114.306C312.907 115.541 314.234 115.714 314.234 115.714C314.234 115.714 312.258 117.471 314.293 118.109C314.293 118.109 313.57 119.393 315.27 119.96C315.27 119.96 315.494 121.899 318.471 122.208C319.908 122.358 324.373 122.281 328.818 121.981L328.818 114.028Z" fill="#C26E59"/>
<path d="M305.942 94.5291L297.195 92.6845L293.94 88.6995L286.746 102.745L293.282 100.524L296.965 108.133L305.942 94.5291Z" fill="#F1F1F1"/>
<path d="M296.393 94.5291L300.67 98.3608" stroke="#B2B2B2" stroke-width="0.599263" stroke-linecap="round" stroke-linejoin="round"/>
<path d="M292.003 95.5766L299.118 102.622" stroke="#B2B2B2" stroke-width="0.599263" stroke-linecap="round" stroke-linejoin="round"/>
<path d="M318.604 66.4L320.446 66.1694C320.446 66.1694 356.719 119.453 355.895 121.505C352.442 122.889 346.917 122.638 342.63 122.353C338.514 122.08 334.027 122.353 331.495 121.966C330.26 120.735 314.083 81.3927 315.729 74.5544C317.375 67.7162 317.917 66.5366 318.604 66.4Z" fill="#F1F1F1"/>
<path d="M329.033 87.3705C334.538 94.8505 338.83 103.11 344.382 110.558C344.524 110.747 344.85 110.562 344.706 110.37C339.154 102.922 334.862 94.6623 329.357 87.1823C329.217 86.9914 328.89 87.1766 329.033 87.3705Z" fill="#B2B2B2"/>
<path d="M333.663 102.176C337.661 108.578 342.655 114.348 348.447 119.253C348.63 119.408 348.895 119.146 348.711 118.99C342.942 114.105 337.969 108.364 333.987 101.988C333.86 101.786 333.536 101.972 333.663 102.176Z" fill="#B2B2B2"/>
<path d="M334.716 112.817C338.73 115.747 343.138 118.112 347.813 119.855C348.039 119.939 348.136 119.582 347.911 119.499C343.267 117.768 338.889 115.408 334.904 112.497C334.71 112.356 334.524 112.677 334.717 112.818L334.716 112.817Z" fill="#B2B2B2"/>
</g>
<path d="M112.678 54.0429C119.046 55.8673 125.681 52.1791 127.498 45.8051C129.316 39.4311 125.627 32.785 119.26 30.9606C112.892 29.1362 106.257 32.8244 104.44 39.1984C102.622 45.5724 106.311 52.2185 112.678 54.0429Z" fill="#F2896F"/>
<path d="M114.999 45.6683L114.994 45.2218C114.989 44.7638 115.027 44.3712 115.109 44.044C115.19 43.711 115.335 43.4002 115.543 43.1117C115.757 42.8231 116.053 42.5163 116.432 42.1916C116.873 41.8146 117.22 41.4958 117.474 41.2354C117.734 40.9692 117.919 40.7038 118.03 40.4392C118.142 40.1746 118.195 39.8562 118.191 39.4841C118.184 38.8888 117.987 38.4358 117.601 38.1252C117.214 37.8088 116.673 37.6545 115.976 37.6622C115.411 37.6684 114.909 37.7455 114.471 37.8935C114.033 38.0414 113.613 38.2178 113.209 38.4227L112.699 37.2775C113.165 37.0262 113.67 36.8202 114.217 36.6596C114.763 36.499 115.373 36.415 116.047 36.4076C117.149 36.3954 118.006 36.6608 118.618 37.2036C119.23 37.7408 119.541 38.4874 119.552 39.4434C119.558 39.9758 119.478 40.4318 119.311 40.8115C119.144 41.1855 118.906 41.5316 118.595 41.8499C118.285 42.1625 117.917 42.4958 117.493 42.8497C117.12 43.1744 116.835 43.461 116.638 43.7093C116.441 43.952 116.307 44.2025 116.236 44.4609C116.164 44.7136 116.131 45.0174 116.135 45.3724L116.138 45.6557L114.999 45.6683ZM114.653 48.2656C114.648 47.8649 114.739 47.5805 114.925 47.4124C115.112 47.2386 115.353 47.1501 115.65 47.1468C115.93 47.1437 116.168 47.227 116.364 47.3966C116.566 47.5604 116.669 47.8426 116.674 48.2434C116.679 48.6383 116.582 48.9285 116.384 49.1139C116.192 49.2935 115.956 49.3849 115.677 49.388C115.38 49.3912 115.136 49.3052 114.945 49.1298C114.755 48.9487 114.657 48.6606 114.653 48.2656Z" fill="white"/>
<path d="M244.45 47.6467H149.304C143.038 47.6467 137.959 52.7343 137.959 59.0102V59.0102C137.959 65.2861 143.038 70.3737 149.304 70.3737H244.45C250.715 70.3737 255.794 65.2861 255.794 59.0102C255.794 52.7343 250.715 47.6467 244.45 47.6467Z" fill="#F8CC9C"/>
<path d="M244.45 45.6636H149.304C143.038 45.6636 137.959 50.7512 137.959 57.0271V57.0271C137.959 63.303 143.038 68.3906 149.304 68.3906H244.45C250.715 68.3906 255.794 63.303 255.794 57.0271C255.794 50.7512 250.715 45.6636 244.45 45.6636Z" fill="#FFFCF9"/>
<path d="M220.419 54.4702H151.215V59.5838H220.419V54.4702Z" fill="#FBE2C7"/>
<rect x="228.471" y="50.6416" width="12" height="12" rx="2.5" fill="#FBE2C7" stroke="#F7C58E" stroke-width="2"/>
<path d="M231.555 56.9333L233.305 58.6834L237.68 54.3083" stroke="#F5B672" stroke-linecap="round" stroke-linejoin="round"/>
<path d="M244.45 77.1807H149.304C143.038 77.1807 137.959 82.2683 137.959 88.5442V88.5442C137.959 94.8201 143.038 99.9077 149.304 99.9077H244.45C250.715 99.9077 255.794 94.8201 255.794 88.5442C255.794 82.2683 250.715 77.1807 244.45 77.1807Z" fill="#F8CC9C"/>
<path d="M244.45 75.1975H149.304C143.038 75.1975 137.959 80.2851 137.959 86.561V86.561C137.959 92.8369 143.038 97.9245 149.304 97.9245H244.45C250.715 97.9245 255.794 92.8369 255.794 86.561C255.794 80.2851 250.715 75.1975 244.45 75.1975Z" fill="#FFFCF9"/>
<path d="M220.419 84.0042H151.215V89.1177H220.419V84.0042Z" fill="#FBE2C7"/>
<rect x="228.471" y="80.6523" width="12" height="12" rx="2.5" fill="#FBE2C7" stroke="#F7C58E" stroke-width="2"/>
<path d="M231.555 86.9441L233.305 88.6941L237.68 84.3191" stroke="#F5B672" stroke-linecap="round" stroke-linejoin="round"/>
<path d="M244.45 106.715H149.304C143.038 106.715 137.959 111.802 137.959 118.078V118.078C137.959 124.354 143.038 129.442 149.304 129.442H244.45C250.715 129.442 255.794 124.354 255.794 118.078C255.794 111.802 250.715 106.715 244.45 106.715Z" fill="#F8CC9C"/>
<path d="M244.45 104.731H149.304C143.038 104.731 137.959 109.819 137.959 116.095V116.095C137.959 122.371 143.038 127.458 149.304 127.458H244.45C250.715 127.458 255.794 122.371 255.794 116.095C255.794 109.819 250.715 104.731 244.45 104.731Z" fill="#FFFCF9"/>
<path d="M220.419 113.538H151.215V118.652H220.419V113.538Z" fill="#FBE2C7"/>
<rect x="228.471" y="109.805" width="12" height="12" rx="2.5" stroke="#FBE2C7" stroke-width="2"/>
<path d="M270.647 127.121C278.684 127.121 285.199 133.647 285.199 141.698C285.199 149.748 278.684 156.274 270.647 156.274C262.609 156.274 256.094 149.748 256.094 141.698C256.094 133.647 262.609 127.121 270.647 127.121Z" fill="#F2896F"/>
<path d="M269.666 135.805C272.373 135.805 274.568 138.003 274.568 140.715C274.568 143.427 272.373 145.626 269.666 145.626C266.958 145.626 264.764 143.427 264.764 140.715C264.764 138.003 266.958 135.805 269.666 135.805Z" fill="#F2896F" stroke="white" stroke-width="0.946973" stroke-linecap="round" stroke-linejoin="round"/>
<path d="M273.133 144.187L276.529 147.59" stroke="white" stroke-width="0.946973" stroke-linecap="round" stroke-linejoin="round"/>
<path d="M292.598 43.9487V46.3841" stroke="#DC5556" stroke-width="0.936601" stroke-linecap="round"/>
<path d="M292.598 56.3328V58.768" stroke="#DC5556" stroke-width="0.936601" stroke-linecap="round"/>
<path d="M299.994 51.3584H297.562" stroke="#DC5556" stroke-width="0.936601" stroke-linecap="round"/>
<path d="M287.631 51.3584H285.199" stroke="#DC5556" stroke-width="0.936601" stroke-linecap="round"/>
<path d="M297.829 56.5995L296.107 54.8755" stroke="#DC5556" stroke-width="0.936601" stroke-linecap="round"/>
<path d="M289.085 47.8412L287.369 46.1172" stroke="#DC5556" stroke-width="0.936601" stroke-linecap="round"/>
<path d="M297.829 46.1172L296.107 47.8412" stroke="#DC5556" stroke-width="0.936601" stroke-linecap="round"/>
<path d="M289.085 54.8755L287.369 56.5995" stroke="#DC5556" stroke-width="0.936601" stroke-linecap="round"/>
</g>
<defs>
<radialGradient id="paint0_radial_8129_73884" cx="0" cy="0" r="1" gradientUnits="userSpaceOnUse" gradientTransform="translate(60.0475 42.1411) scale(2.44011 2.44411)">
<stop stop-color="#DC5556"/>
<stop offset="0.201056" stop-color="#DC5859"/>
<stop offset="0.376238" stop-color="#DF6363"/>
<stop offset="0.541748" stop-color="#E47575"/>
<stop offset="0.701352" stop-color="#EB8E8D"/>
<stop offset="0.855228" stop-color="#F4AEAC"/>
<stop offset="1" stop-color="#FFD4D1"/>
</radialGradient>
<radialGradient id="paint1_radial_8129_73884" cx="0" cy="0" r="1" gradientUnits="userSpaceOnUse" gradientTransform="translate(44.9538 -106.279) scale(2.44011 2.44411)">
<stop stop-color="#DC5556"/>
<stop offset="0.201056" stop-color="#DC5859"/>
<stop offset="0.376238" stop-color="#DF6363"/>
<stop offset="0.541748" stop-color="#E47575"/>
<stop offset="0.701352" stop-color="#EB8E8D"/>
<stop offset="0.855228" stop-color="#F4AEAC"/>
<stop offset="1" stop-color="#FFD4D1"/>
</radialGradient>
</defs>
</svg>
